<svg xmlns="http://www.w3.org/2000/svg" xmlns:xlink="http://www.w3.org/1999/xlink" width="447.287" height="411.235" viewBox="0 0 447.287 411.235"><defs><filter id="a" x="0" y="0" width="447.287" height="411.235" filterUnits="userSpaceOnUse"><feOffset input="SourceAlpha"/><feGaussianBlur stdDeviation="13" result="b"/><feFlood flood-color="#00cfe5"/><feComposite operator="in" in2="b"/><feComposite in="SourceGraphic"/></filter></defs><g transform="matrix(1, 0, 0, 1, 0, 0)" filter="url(#a)"><path d="M670.075,13.29c3.487,50.89-14.566,93.151-50.655,128.384-8.671,8.466-16.9,17.4-25.826,25.589-5.182,4.755-7.322,10.265-8.072,16.956-1.411,12.592-2.678,25.241-5.071,37.662-1.046,5.423-3.637,11.371-7.387,15.308-14.764,15.5-30.2,30.378-45.59,45.27-1.985,1.921-5.969,4.226-7.649,3.434-2.435-1.152-4.507-4.761-5.167-7.677-2.171-9.6-3.155-19.474-5.568-29-1.278-5.045-4.569-9.58-7.83-16.1-3.8,6.77-6.313,11.087-8.671,15.486-3.5,6.528-7.89,6.639-12.724,1.675-5.246-5.389-10.263-11-16.516-17.737-3.88,16.5-11.772,27.081-24.722,33.968-2.049,1.088-3.3,4.3-4.223,6.785-7.794,20.97-22.251,34.044-44.449,38.291-2.39.457-5.572,1.11-6.761,2.809-6.573,9.412-16.145,14.372-26.159,18.843h-8.458c-17.652-7.638-23.8-14.995-19.664-28.869,3.169-10.645-1.59-19.724-.611-29.576l-2.649-.32q-2.625,15.373-5.246,30.743c-1.392-5.538-1.492-11.1-2.437-16.521-1.865-10.671-4.074-21.346-16.758-24.812V260.5c12.754-3.955,15-14.854,16.811-25.847.879-5.346,1.035-10.812,2.793-16.117.749,6.524,1.078,13.136,2.384,19.547a49.319,49.319,0,0,0,5.054,14.167c4.281,7.623,6.217,6.8,13.471,2.277,9.194-5.732,14.269-13.657,19.274-22.94,10.5-19.479,30.615-26.85,52.492-22.874,6,1.093,12.79-2.138,19.218-3.387q.771-1.364,1.541-2.725c-4.842-4.147-9.86-8.108-14.48-12.489-4.543-4.311-3.818-8.453,1.545-11.6,4.569-2.683,9.252-5.171,16.691-9.307-7.47-3.351-12.572-6.52-18.123-7.935-9.514-2.424-19.344-3.577-28.972-5.592-7.581-1.588-9.092-6.289-3.634-11.836,16.2-16.461,32.412-32.911,49.12-48.841,3.107-2.962,8.415-4.268,12.922-4.981,13.887-2.2,27.93-3.436,41.8-5.741a22.016,22.016,0,0,0,10.735-5.762c13.257-12.613,25.8-25.979,39.22-38.415C564.467,18.409,592.349,5.946,623.919,1.62A36.611,36.611,0,0,0,629.381,0h32.139M596.143,20.889a139.3,139.3,0,0,0-53.254,33.754q-48.771,48.592-97.376,97.351c-1.519,1.522-2.9,3.18-3.963,4.345L514.208,229a7.677,7.677,0,0,0,1.543-1.078c35.25-35.233,70.686-70.283,105.616-105.832,13.044-13.277,22.116-29.336,28.367-47.507-28.226-7.493-46.049-24.927-53.591-53.7m-144.166,213.7c.111-9.973-4.375-17.084-12.63-18.132-5.694-.723-11.781,1.707-17.7,2.693-3.4.568-7.248,2.356-10.154,1.383-20.038-6.712-41.072,3.891-45.776,24.274-1.5,6.507-4.089,10.041-10.511,12.372-11.9,4.317-19.107,17.071-14.732,26.66,2.811,6.161,2.512,10.78-.333,16.444-3.024,6.025-2.258,12.163,2.664,17.148a14.692,14.692,0,0,0,17.951,2.836c5.455-2.881,9.531-8.278,14.493-12.218,3.208-2.548,6.778-6.093,10.419-6.4,19.494-1.628,34.873-13.783,39.079-32.689,1.283-5.76,3.677-9.207,9.356-11.537,10.677-4.381,16.854-12.726,17.872-22.838M608.361,15.259c2.531,23.971,24.313,45.7,47.185,46.854.943-14.931,2.028-29.9,2.636-44.9.066-1.618-2.683-4.853-4.014-4.8-15.263.659-30.506,1.812-45.806,2.838M403.232,144.776c16.414,6.957,30.13,7.775,40.831-7.965,3.888-5.722,9.746-10.114,14.768-15.048,7.534-7.4,15.125-14.754,22.691-22.125-11.2-.461-21.212.651-31.18,2.1-2.382.346-5.156,1.246-6.806,2.86-13.454,13.155-26.684,26.541-40.3,40.18M525.115,268.459c11.608-11.74,21.4-23.487,33.041-32.958,15.334-12.474,10.965-29.377,13.437-45.059-16.687,15.172-32.418,30.758-47.775,46.7a12.9,12.9,0,0,0-2.994,9.164c.687,6.863,2.551,13.612,4.292,22.151m-81.506-88.421c-2.971,1.652-6.074,3.376-8.658,4.81,17.2,17.131,34.006,33.88,50.9,50.712,1.368-2.448,3.252-5.822,4.81-8.609-15.806-15.757-31.1-31-47.054-46.914M320.281,242.46c-3.278,6.68-6.562,13.371-9.606,19.57,3.312,6.7,6.61,13.375,9.644,19.515,3.131-6.5,6.445-13.377,9.395-19.5-3.272-6.791-6.4-13.3-9.433-19.585" transform="translate(-262.21 39)" fill="#fff"/></g></svg>