<svg xmlns="http://www.w3.org/2000/svg" xmlns:xlink="http://www.w3.org/1999/xlink" width="334.849" height="130.404" viewBox="0 0 334.849 130.404"><defs><clipPath id="a"><rect width="334.85" height="130.404" fill="#fff"/></clipPath></defs><g clip-path="url(#a)"><path d="M19.281,18.584l-.4.143-1.528.55-.08-.231.339-.122a1.207,1.207,0,0,0,.734-1.523L16.594,12.53l-7.12,2.564,1.4,3.893a1.207,1.207,0,0,0,1.536.705l.339-.122.084.224L9.189,21.105l-.078-.226.339-.122a1.206,1.206,0,0,0,.742-1.5l-1.41-3.916L2.856,17.477a1.569,1.569,0,0,0-.917,2l.105.291-.229.087L0,14.813l.232-.079.1.291a1.569,1.569,0,0,0,1.979.954l12.9-4.643A1.511,1.511,0,0,0,16,9.394L15.9,9.1l.228-.086,2.423,6.73a10.6,10.6,0,0,0,1.407,2.595Z" transform="translate(0 -5.958)" fill="#fff"/><path d="M42.087,68.9c1.371,2.63.661,5.051-1.868,6.369-2.1,1.1-4.973.558-6.062-1.53a5.923,5.923,0,0,1-.717,2.349s-1.7,3.265-2.176,4.584a4.417,4.417,0,0,0-.1,3.808l-.218.113L30.323,83.4a5.265,5.265,0,0,1-.071-4.78c.166-.4,2.45-4.7,2.572-4.977.417-.939.839-1.964.425-2.758l.2-.1s.247.5.6,1.144a3.665,3.665,0,0,0,4.02,2.213,5.053,5.053,0,0,0,1.372-.539c1.935-1.077,2.66-2.756,1.905-4.418-.516-1.138-1.255-2.424-1.392-2.711L27.023,73.212a1.568,1.568,0,0,0-.64,2.1l.143.274-.215.117-2.472-4.742.219-.11.143.275a1.568,1.568,0,0,0,2.079.684l12.044-6.279a1.568,1.568,0,0,0,.64-2.1l-.143-.275.214-.116Z" transform="translate(-15.752 -41.655)" fill="#fff"/><path d="M82.411,145.4c-4.321,3.148-9.317,2.344-12.383-1.863s-2.3-9.21,2.019-12.358,9.317-2.344,12.383,1.863,2.3,9.209-2.019,12.358m-1.105-1.517c3.965-2.89,4.978-7.054,2.533-10.41s-6.72-3.668-10.686-.778-4.978,7.054-2.533,10.41,6.72,3.668,10.686.778" transform="translate(-45.045 -85.413)" fill="#fff"/><path d="M124.956,208.684a1.738,1.738,0,0,0,.214,2.342l.28.271-.17.176-3.821-3.7.161-.166.274.265a1,1,0,0,0,1.413-.086l7.775-9.618L119.426,202.8a12.31,12.31,0,0,0-2.343,1.211l-.166-.161,4.956-14.11-9.1,7.843a1,1,0,0,0-.042,1.415l.274.266-.161.166-3.4-3.3.17-.176.28.271a1.739,1.739,0,0,0,2.348.14l12.248-9.993.163.158-5.373,15.362,15.069-5.955.161.156Z" transform="translate(-72.318 -123.15)" fill="#fff"/><path d="M226.289,286.988a2.423,2.423,0,0,0,1.09,2.41l.177.1-.123.212-4.772-2.76.121-.21.187.108a1.04,1.04,0,0,0,1.574-.864l.732-4.393-5.708-3.3-3.513,2.8a1.038,1.038,0,0,0,.048,1.785l.186.108-.121.21-4.265-2.466.123-.212.191.11a2.419,2.419,0,0,0,2.627-.259l11.4-8.624a12.9,12.9,0,0,0,2.047-1.729l.191.11Zm-.884-6.168,1.378-8.278-6.6,5.26Z" transform="translate(-140.019 -178.421)" fill="#fff"/><path d="M307.25,300.593l-.091.227-.422-.161a1.511,1.511,0,0,0-1.933.827L300.288,313.3a24.951,24.951,0,0,0-.906,3l-.208-.079-7.385-18.068-4.352,11.384a1.512,1.512,0,0,0,.888,1.907l.422.161-.084.23-4.71-1.8.091-.228.422.162a1.512,1.512,0,0,0,1.941-.845l4.541-11.879a21.291,21.291,0,0,0,.881-2.937l.226.087,7.369,18.055,4.335-11.339a1.512,1.512,0,0,0-.882-1.926l-.422-.161.084-.23Z" transform="translate(-187.629 -194.47)" fill="#fff"/><path d="M388.78,333.9c-1.055,5.24-5.281,8.025-10.384,7s-7.921-5.232-6.865-10.472,5.282-8.025,10.385-7,7.921,5.232,6.865,10.472m-1.839-.37c.969-4.81-1.1-8.563-5.17-9.384s-7.431,1.84-8.4,6.649,1.1,8.563,5.17,9.383,7.431-1.84,8.4-6.649" transform="translate(-245.352 -213.574)" fill="#fff"/><path d="M460.62,331.887a10.6,10.6,0,0,0,2.967-.294l-.157,3.074-.246-.016.022-.436a1.459,1.459,0,0,0-1.32-1.527l-4.633-.236-.747,14.643a1.569,1.569,0,0,0,1.488,1.6l.309.016-.009.245-5.352-.273.016-.244.309.016a1.569,1.569,0,0,0,1.641-1.418l.748-14.663-4.636-.236a1.459,1.459,0,0,0-1.469,1.385l-.022.436-.246-.009.157-3.073a10.6,10.6,0,0,0,2.921.595Z" transform="translate(-296.875 -218.631)" fill="#fff"/><path d="M529.129,346.895l-.02-.244.309-.03a1.569,1.569,0,0,0,1.414-1.664l-.61-6.31-9.971.963.608,6.291a1.568,1.568,0,0,0,1.709,1.381l.308-.03.027.243-5.331.515-.02-.244.308-.03a1.569,1.569,0,0,0,1.413-1.683l-1.306-13.515a1.568,1.568,0,0,0-1.707-1.372l-.308.03-.027-.243,5.33-.515.02.244-.308.03a1.569,1.569,0,0,0-1.414,1.668l.628,6.5,9.971-.964-.63-6.516a1.568,1.568,0,0,0-1.7-1.35l-.308.03-.027-.243,5.33-.515.02.244-.308.03a1.568,1.568,0,0,0-1.413,1.683l1.305,13.506a1.569,1.569,0,0,0,1.709,1.381l.308-.03.027.243Z" transform="translate(-340.91 -217.607)" fill="#fff"/><path d="M606.648,332.7l-9.848,2.443-.055-.238.3-.074a1.569,1.569,0,0,0,1.151-1.872l-3.3-13.3a1.568,1.568,0,0,0-1.851-.986l-.3.075-.063-.235,6.943-1.723a10.58,10.58,0,0,0,2.725-1.135l.173.7.1.4.473,1.907-.24.056-.1-.423a1.46,1.46,0,0,0-1.681-1.084l-4.843,1.2,1.822,7.345,4.014-1a1.206,1.206,0,0,0,.859-1.456l-.086-.35.231-.061.932,3.76-.233.055-.087-.35a1.206,1.206,0,0,0-1.415-.891l-4.039,1,1.766,7.118,3.408-.845c2.517-.624,3.16-2.166,3.445-4.157l.238-.059Z" transform="translate(-391.629 -208.579)" fill="#fff"/><path d="M656.509,300.041c2.755-1.1,5.091-.148,6.148,2.5.878,2.2.052,5-2.134,5.875a5.941,5.941,0,0,1,2.265.952s3.076,2.017,4.34,2.627a4.417,4.417,0,0,0,3.777.487l.091.228-1.248.5a5.265,5.265,0,0,1-4.762-.411c-.381-.206-4.43-2.912-4.692-3.062-.892-.51-1.869-1.033-2.7-.7l-.084-.211s.521-.2,1.2-.486a3.665,3.665,0,0,0,2.608-3.776,5.084,5.084,0,0,0-.4-1.419c-.876-2.034-2.473-2.924-4.2-2.342-1.185.4-2.538,1-2.838,1.111l5.4,13.551a1.568,1.568,0,0,0,2.026.849l.288-.114.094.226-4.967,1.98-.087-.229.288-.115a1.567,1.567,0,0,0,.889-2l-5.03-12.614a1.568,1.568,0,0,0-2.027-.849l-.288.115-.094-.225Z" transform="translate(-429.752 -197.963)" fill="#fff"/><path d="M761.255,223.441l.144.2-.174.126a2.292,2.292,0,0,0-.848,2.489l4.319,12.859a12.335,12.335,0,0,0,1.164,2.517l-.187.136L753.4,233.373l3.618,11.305a12.54,12.54,0,0,0,1.182,2.5l-.187.136-13.708-9.44a2.313,2.313,0,0,0-2.613.051l-.159.115-.144-.2,4.4-3.194.143.2-.174.126a1.055,1.055,0,0,0,.109,1.779l9.991,7.47L751.31,230.18l.189-.128,11.857,8.126-4.076-11.2c-.355-.9-1.085-1.017-1.625-.626l-.174.126-.142-.2Z" transform="translate(-489.893 -147.644)" fill="#fff"/><path d="M839.707,184.053c3.839,3.72,3.9,8.779.278,12.518s-8.681,3.838-12.52.119-3.9-8.779-.278-12.517,8.68-3.839,12.52-.12M838.4,185.4c-3.523-3.413-7.8-3.7-10.688-.718s-2.466,7.247,1.057,10.66,7.8,3.7,10.688.718,2.466-7.247-1.057-10.66" transform="translate(-544.826 -119.808)" fill="#fff"/><path d="M870.672,131.972c1.717-2.418,4.195-2.888,6.52-1.237,1.932,1.372,2.76,4.173,1.4,6.092a5.937,5.937,0,0,1,2.419-.431s3.678.024,5.07-.149a4.417,4.417,0,0,0,3.436-1.642l.2.142-.777,1.094a5.264,5.264,0,0,1-4.223,2.239c-.432.035-5.3-.04-5.6-.024-1.025.056-2.13.148-2.648.876l-.185-.131s.332-.447.743-1.059a3.665,3.665,0,0,0,.14-4.586,5.067,5.067,0,0,0-1.1-.976c-1.84-1.233-3.664-1.113-4.8.315-.778.978-1.587,2.221-1.781,2.473l11.893,8.446a1.568,1.568,0,0,0,2.162-.387l.179-.252.2.138-3.1,4.359-.2-.145.179-.253a1.567,1.567,0,0,0-.338-2.162l-11.07-7.862a1.568,1.568,0,0,0-2.162.387l-.18.252-.2-.137Z" transform="translate(-572.792 -85.743)" fill="#fff"/><path d="M920.389,84.138l2.828,3.11-4.744,8.969-.215-.118.145-.274a1.568,1.568,0,0,0-.628-2.105l-11.992-6.343a1.569,1.569,0,0,0-2.094.666l-.144.274-.218-.111,2.5-4.734.215.118-.145.273a1.569,1.569,0,0,0,.628,2.106L919.434,92.8l1.641-3.1c1.213-2.293.493-3.8-.8-5.34Z" transform="translate(-596.895 -55.157)" fill="#fff"/><path d="M932.27,10.654c1.758-4.923,6.185-7.125,11.03-5.4s6.862,6.233,5.1,11.156l-2.786,7.8-.229-.086.1-.292a1.568,1.568,0,0,0-.919-1.993l-12.912-4.61a1.51,1.51,0,0,0-1.843,1l-.1.291-.23-.078ZM946.086,20.7l1.618-4.531c1.411-3.951-.605-7.6-5.021-9.177s-8.317-.014-9.72,3.914l-1.618,4.531Z" transform="translate(-614.18 -3.089)" fill="#fff"/><path d="M469.914,28.59c-.068.738-.122,1.477-.211,2.212a.907.907,0,0,0,.244.805,14.7,14.7,0,0,1,2.93,4.338,4.718,4.718,0,0,1,.368,2.759,3.572,3.572,0,0,1-2.9,2.8,11.434,11.434,0,0,1-4.675.044c-.479-.073-.949-.208-1.429-.262a.921.921,0,0,0-.611.155A16.45,16.45,0,0,1,437.4,32.222a16.158,16.158,0,0,1-.239-6.035.734.734,0,0,0-.217-.68,14.792,14.792,0,0,1-2.957-4.371,4.57,4.57,0,0,1-.324-2.967,3.735,3.735,0,0,1,3.22-2.694,13.838,13.838,0,0,1,5.643.294.849.849,0,0,0,.781-.169,16.433,16.433,0,0,1,25.947,8.464,17.318,17.318,0,0,1,.661,4.524M453.452,14.884c-.414,0-.83-.031-1.24.008a11.411,11.411,0,0,0-1.606.243,13.606,13.606,0,0,0-10.306,9.5.444.444,0,0,0,.152.551c.526.46,1.028.949,1.559,1.4a62.148,62.148,0,0,0,11.558,7.678,51.208,51.208,0,0,0,9.062,3.775.718.718,0,0,0,.878-.224A13.4,13.4,0,0,0,467,26.681a13.578,13.578,0,0,0-13.544-11.8M439.752,28.3a13.642,13.642,0,0,0,7.26,12.344,13.445,13.445,0,0,0,13.42-.407A66.972,66.972,0,0,1,439.752,28.3m.748-10.114c-.229-.029-.533-.08-.838-.1a6.316,6.316,0,0,0-2.7.209c-.556.2-.749.472-.661.989a7.539,7.539,0,0,0,1.692,3.239l2.509-4.333m25.867,20.69a8.188,8.188,0,0,0,3.432-.037.878.878,0,0,0,.737-1.182,7.715,7.715,0,0,0-1.669-3.105l-2.5,4.324" transform="translate(-286.469 -7.993)" fill="#fff"/><path d="M524.653,4.805a4.794,4.794,0,1,1,4.805,4.779,4.775,4.775,0,0,1-4.805-4.779m2.741-.02a2.052,2.052,0,0,0,2.023,2.058A2.077,2.077,0,0,0,531.5,4.789a2.055,2.055,0,0,0-2.035-2.047,2.027,2.027,0,0,0-2.07,2.044" transform="translate(-346.677)" fill="#fff"/><path d="M457.135,6.06A1.366,1.366,0,0,1,458.513,7.4a1.369,1.369,0,1,1-2.738.018,1.361,1.361,0,0,1,1.36-1.359" transform="translate(-301.164 -4.004)" fill="#fff"/><path d="M515.082,63.969a1.369,1.369,0,1,1-2.738,0,1.369,1.369,0,0,1,2.738,0" transform="translate(-338.544 -41.376)" fill="#fff"/></g></svg>