<svg xmlns="http://www.w3.org/2000/svg" xmlns:xlink="http://www.w3.org/1999/xlink" width="266.847" height="144.249" viewBox="0 0 266.847 144.249"><defs><clipPath id="a"><rect width="266.847" height="144.249" fill="#fff"/></clipPath></defs><g clip-path="url(#a)"><path d="M26.055,218.965l-.189.185-.162-.166a2.478,2.478,0,0,0-2.8-.512L9.837,225.133a13.346,13.346,0,0,0-2.507,1.645l-.175-.178,7.029-14.456L2.665,217.807a13.562,13.562,0,0,0-2.491,1.662L0,219.291l7.922-16.162a2.5,2.5,0,0,0-.469-2.787L7.3,200.19l.189-.185,4.115,4.2-.188.184-.163-.166a1.141,1.141,0,0,0-1.885.4L2.969,216.5l14.3-7.1.167.182-6.811,13.973,11.336-6.138c.91-.523.916-1.322.412-1.837l-.163-.167.187-.184Z" transform="translate(0 -132.158)" fill="#fff"/><path d="M72.863,291.522l-8.888-6.437.158-.212.271.2a1.7,1.7,0,0,0,2.35-.353l8.694-12a1.7,1.7,0,0,0-.477-2.218l-.271-.2.151-.215,6.265,4.537a11.443,11.443,0,0,0,2.838,1.461l-.455.628-.259.358-1.247,1.722-.214-.16.277-.382a1.579,1.579,0,0,0-.276-2.146l-4.371-3.165-4.8,6.628,3.624,2.624a1.3,1.3,0,0,0,1.8-.3l.229-.316.212.149-2.457,3.393-.208-.154.229-.316a1.3,1.3,0,0,0-.25-1.79l-3.646-2.64-4.652,6.424,3.075,2.227c2.272,1.645,4,1.1,5.839-.051l.215.155Z" transform="translate(-42.273 -178.464)" fill="#fff"/><path d="M191.162,346.917a1.138,1.138,0,0,0-1.677.614l-1.64,4.058a9.294,9.294,0,0,1-8.374.293c-5.208-2.133-7.369-7.156-5.21-12.5,2.166-5.359,7.211-7.477,12.422-5.371a11.234,11.234,0,0,1,5.279,4.061l-.905,3.666-.2-.082c.389-3.109-1.218-5.6-4.459-6.906-4.159-1.681-8.3.458-10.292,5.377-1.979,4.9-.484,9.315,3.666,11.018a8.855,8.855,0,0,0,6.4.11l1.757-4.348a1.177,1.177,0,0,0-.81-1.63l-.387-.156.1-.245,4.806,1.942-.1.245Z" transform="translate(-114.599 -220.177)" fill="#fff"/><path d="M276.252,370.248c-1.185,5.658-5.777,8.634-11.286,7.481s-8.522-5.721-7.337-11.38,5.776-8.634,11.286-7.48,8.522,5.721,7.338,11.38m-1.986-.416c1.087-5.193-1.118-9.269-5.514-10.189s-8.05,1.928-9.138,7.121,1.118,9.268,5.514,10.189,8.051-1.928,9.138-7.121" transform="translate(-170.065 -236.968)" fill="#fff"/><path d="M393.288,370.047c3.708-.14,5.813,1.555,5.923,4.2a4.043,4.043,0,0,1-2.78,4.13,5.022,5.022,0,0,1,4.726,4.931c.113,2.988-2.034,5.056-5.975,5.2l-6.445.244-.006-.265.335-.013a1.7,1.7,0,0,0,1.631-1.71l-.556-14.7a1.678,1.678,0,0,0-1.76-1.578l-.33.013-.014-.263Zm1.764,17.509c2.715-.091,4.218-1.684,4.114-4.358-.148-3.965-3.585-4.5-6.144-4.395l-.016-.249c1.613-.055,4.346-.636,4.227-4.037-.1-2.391-1.5-3.715-4.01-3.617l-1.4.053.632,16.7Z" transform="translate(-256.404 -244.512)" fill="#fff"/><path d="M467.342,377.913l-10.807,1.9-.042-.262.33-.058a1.7,1.7,0,0,0,1.381-1.933l-2.573-14.6a1.7,1.7,0,0,0-1.924-1.2l-.33.058-.05-.258,7.619-1.343a11.45,11.45,0,0,0,3.024-1.022l.135.763.077.435.369,2.093-.264.043-.082-.465a1.579,1.579,0,0,0-1.733-1.294l-5.315.937,1.42,8.059,4.406-.776a1.3,1.3,0,0,0,1.035-1.506l-.068-.384.254-.049.727,4.126-.255.042-.068-.384a1.3,1.3,0,0,0-1.46-1.066l-4.433.781,1.377,7.811,3.739-.659c2.762-.486,3.571-2.1,4.026-4.229l.261-.046Z" transform="translate(-299.547 -237.351)" fill="#fff"/><path d="M529.245,337.934l.084.252-.352.117a3.415,3.415,0,0,0-2.036,2.295l-2.3,9.677,1.995,6.014a1.7,1.7,0,0,0,2.133,1.046l.318-.1.087.25-5.495,1.822-.079-.253.318-.1a1.7,1.7,0,0,0,1.089-2.1l-2.008-6.055-7.435-6.41a3.339,3.339,0,0,0-3.013-.63l-.342.113-.083-.251,6.177-2.049.084.25-.317.105a1.117,1.117,0,0,0-.362,1.852l6.1,5.782,1.671-8.36.005-.028a1.117,1.117,0,0,0-1.4-1.236l-.317.1-.083-.252Z" transform="translate(-338.396 -223.298)" fill="#fff"/><path d="M609.89,317.188c2.676,5.125,1.017,10.339-3.973,12.945S595.7,331.12,593.025,326s-1.016-10.339,3.973-12.944,10.217-.988,12.893,4.136m-1.8.94c-2.457-4.7-6.747-6.452-10.728-4.374s-5,6.6-2.541,11.3,6.746,6.452,10.727,4.373,5-6.6,2.542-11.3" transform="translate(-391.016 -206.046)" fill="#fff"/><path d="M672.291,253.834l.158.212-.387.3a1.635,1.635,0,0,0-.325,2.251l8.359,10.824a27.008,27.008,0,0,0,2.255,2.525l-.19.147-20.837-3.363,8.056,10.431a1.635,1.635,0,0,0,2.261.255l.387-.3.165.207-4.315,3.333-.159-.212.387-.3a1.635,1.635,0,0,0,.313-2.268l-8.4-10.884a23.06,23.06,0,0,0-2.215-2.468l.207-.159,20.816,3.371L670.8,257.347a1.635,1.635,0,0,0-2.274-.271l-.386.3-.165-.207Z" transform="translate(-434.657 -167.727)" fill="#fff"/><path d="M726.409,209.125c3.806-4.18,9.141-4.532,13.255-.786s4.25,9.08.443,13.26l-6.033,6.625-.193-.181.225-.247a1.7,1.7,0,0,0-.086-2.372l-10.963-9.982a1.633,1.633,0,0,0-2.255.227l-.225.248-.2-.174Zm9.6,15.778,3.5-3.846c3.055-3.354,2.564-7.836-1.185-11.25s-8.294-3.481-11.33-.146l-3.5,3.846Z" transform="translate(-476.009 -135.951)" fill="#fff"/><path d="M358.484,0c1.138.266,1.29,1.1,1.36,2.112.554,8.089-2.315,14.806-8.052,20.406-1.378,1.346-2.686,2.766-4.1,4.067a4.009,4.009,0,0,0-1.283,2.7c-.224,2-.426,4.012-.806,5.986a5.06,5.06,0,0,1-1.174,2.433c-2.347,2.464-4.8,4.829-7.247,7.2-.315.305-.949.672-1.216.546a1.917,1.917,0,0,1-.821-1.22c-.345-1.525-.5-3.1-.885-4.609a14.847,14.847,0,0,0-1.245-2.559c-.6,1.076-1,1.762-1.378,2.461-.557,1.038-1.254,1.055-2.022.266-.834-.857-1.631-1.748-2.625-2.819a7.575,7.575,0,0,1-3.93,5.4,2.041,2.041,0,0,0-.671,1.078,8.92,8.92,0,0,1-7.065,6.086,1.807,1.807,0,0,0-1.075.446,9.327,9.327,0,0,1-4.158,3h-1.344c-2.806-1.214-3.783-2.383-3.126-4.589.5-1.692-.253-3.135-.1-4.7l-.421-.051q-.417,2.443-.834,4.887c-.221-.88-.237-1.765-.387-2.626-.3-1.7-.648-3.393-2.664-3.944v-.538c2.027-.629,2.384-2.361,2.672-4.108a16.258,16.258,0,0,1,.444-2.562c.119,1.037.171,2.088.379,3.107a7.839,7.839,0,0,0,.8,2.252c.68,1.212.988,1.081,2.141.362a8.824,8.824,0,0,0,3.064-3.646c1.669-3.1,4.866-4.268,8.344-3.636.954.174,2.033-.34,3.055-.538l.245-.433c-.77-.659-1.567-1.289-2.3-1.985s-.607-1.344.246-1.844c.726-.426,1.471-.822,2.653-1.479a20.5,20.5,0,0,0-2.881-1.261c-1.512-.385-3.075-.569-4.6-.889-1.2-.252-1.445-1-.578-1.881,2.574-2.616,5.152-5.231,7.808-7.763a3.98,3.98,0,0,1,2.054-.792c2.207-.35,4.439-.546,6.644-.913a3.5,3.5,0,0,0,1.706-.916c2.107-2,4.1-4.129,6.234-6.106A23.609,23.609,0,0,1,352.508.257,5.819,5.819,0,0,0,353.376,0h5.108M348.093,3.32a22.141,22.141,0,0,0-8.465,5.365q-7.752,7.724-15.478,15.474c-.242.242-.462.505-.63.691L335.069,36.4a1.221,1.221,0,0,0,.245-.171c5.6-5.6,11.236-11.171,16.788-16.822a19.694,19.694,0,0,0,4.509-7.551,11.161,11.161,0,0,1-8.518-8.535M325.178,37.288c.018-1.585-.7-2.715-2.008-2.882a10.293,10.293,0,0,0-2.813.428c-.541.09-1.152.375-1.614.22a5.5,5.5,0,0,0-7.276,3.858,2.356,2.356,0,0,1-1.671,1.966c-1.892.686-3.037,2.713-2.342,4.238a2.7,2.7,0,0,1-.053,2.614,2.23,2.23,0,0,0,.423,2.726,2.335,2.335,0,0,0,2.853.451,16.922,16.922,0,0,0,2.3-1.942c.51-.405,1.077-.968,1.656-1.017a6.651,6.651,0,0,0,6.212-5.2,2.263,2.263,0,0,1,1.487-1.834,4.328,4.328,0,0,0,2.841-3.63M350.035,2.425c.4,3.81,3.865,7.265,7.5,7.447.15-2.373.322-4.753.419-7.136.011-.257-.426-.771-.638-.762-2.426.1-4.849.288-7.281.451M317.43,23.012c2.609,1.106,4.789,1.236,6.49-1.266a17.35,17.35,0,0,1,2.347-2.392c1.2-1.177,2.4-2.345,3.607-3.517a26.1,26.1,0,0,0-4.956.333,2.031,2.031,0,0,0-1.082.455c-2.138,2.091-4.241,4.219-6.406,6.387M336.8,42.671a70.784,70.784,0,0,1,5.252-5.239c2.437-1.983,1.743-4.669,2.136-7.162-2.652,2.412-5.153,4.889-7.594,7.423a2.051,2.051,0,0,0-.476,1.457c.109,1.091.405,2.164.682,3.521M323.847,28.617l-1.376.765,8.091,8.061.765-1.368-7.479-7.457m-19.6,9.922-1.527,3.111,1.533,3.1,1.493-3.1-1.5-3.113" transform="translate(-199.034)" fill="#fff"/><path d="M382.921,134.288c-.325-1.415-.36-2.935-2.351-3.523a3.677,3.677,0,0,0,2.25-3.727c.493,1.4.361,3.092,2.609,3.575-2.036.7-2.254,2.155-2.508,3.674m-1.073-3.588,1.074,1.612,1.043-1.68-1.091-1.568-1.026,1.636" transform="translate(-251.471 -83.943)" fill="#fff"/><path d="M398.046,60.129a5.415,5.415,0,0,1-5.536-5.51,5.53,5.53,0,0,1,11.059-.014,5.433,5.433,0,0,1-5.523,5.524m-.115-1.884a3.572,3.572,0,0,0,3.719-3.427,3.674,3.674,0,0,0-3.506-3.824,3.754,3.754,0,0,0-3.749,3.612,3.624,3.624,0,0,0,3.536,3.638" transform="translate(-259.36 -32.448)" fill="#fff"/></g></svg>