<svg xmlns="http://www.w3.org/2000/svg" xmlns:xlink="http://www.w3.org/1999/xlink" width="263.707" height="127.361" viewBox="0 0 263.707 127.361"><defs><clipPath id="a"><rect width="263.707" height="127.361" fill="#fff"/></clipPath></defs><g clip-path="url(#a)"><path d="M18.424,170.549l-9.682,4.266-.983,2L6.49,175.421l5.782-11.606.282-.645-10.3,4.542-1,1.978L0,168.319l5.782-11.606a14.436,14.436,0,0,0,1.548-4.8l.14-.129,2.474,2.707-.14.129c-.875-.039-1.362.663-2.2,2.328L2.382,167.465l9.44-4.142c.293-.138.586-.277.861-.4a12.762,12.762,0,0,0,1.137-3.91l.14-.128,2.474,2.707-.14.129c-.875-.04-1.362.663-2.2,2.328L8.871,174.568l9.441-4.142c2.1-.917,2.99-1.635,3.09-3.114l.14-.129,1.912,2.092-.141.129a10.49,10.49,0,0,0-4.889,1.145" transform="translate(0 -100.294)" fill="#fff"/><path d="M65.1,234.217l-2.211,1.92-7.543-6.046.1-.13c.413.056.766-.119,1.287-.769l8.443-10.535c.521-.65.614-1.033.47-1.424l.119-.149,6.949,5.569-1.263,2.375H71.3a6.535,6.535,0,0,0-2.476-5.249l-1.3-1.042-4.393,5.481,5.01,3.344-.76.947-4.37-4.142-5.688,7.1,1.505,1.206a7.2,7.2,0,0,0,6.216,1.382Z" transform="translate(-36.572 -143.444)" fill="#fff"/><path d="M154.592,282.845c-2.109,4.218-7.328,5.656-12.27,3.184L137,283.366l.075-.15c.416-.032.724-.277,1.1-1.023l6.04-12.078c.373-.745.383-1.139.16-1.491l.085-.17,5.326,2.663c4.942,2.471,6.912,7.53,4.814,11.727M152.909,282c1.96-3.919,1.044-8.585-3.216-10.715l-3.174-1.587-7.3,14.592,3.174,1.587c4.26,2.13,8.542.064,10.513-3.877" transform="translate(-90.523 -177.388)" fill="#fff"/><path d="M229.558,314.69a8.644,8.644,0,1,1-5.677-10.731,8.634,8.634,0,0,1,5.677,10.731m-1.592-2.55c.035-4.383-2.415-8.328-6.573-8.367s-6.686,3.857-6.721,8.241c-.042,4.406,2.407,8.351,6.566,8.39s6.686-3.857,6.729-8.264" transform="translate(-140.538 -200.582)" fill="#fff"/><path d="M340.208,333.166c-.337,4.7-4.609,8.026-10.12,7.632l-5.939-.425s.009-.119.012-.166c.371-.188.563-.533.623-1.364l.964-13.468c.06-.831-.081-1.2-.422-1.439,0-.047.014-.19.014-.19l5.938.425c5.511.395,9.265,4.316,8.93,9m-1.877-.134c.313-4.371-2.317-8.331-7.067-8.671l-3.539-.253-1.165,16.271,3.539.253c4.751.34,7.917-3.206,8.232-7.6" transform="translate(-214.189 -213.922)" fill="#fff"/><path d="M399.524,327.618l.527,13.492c.033.833.213,1.184.6,1.383,0,.048.007.167.007.167l-2.951.115s0-.119-.006-.167c.349-.228.5-.592.469-1.424l-.527-13.492c-.033-.833-.213-1.183-.578-1.384,0-.047-.007-.191-.007-.191l2.951-.115s.005.143.007.191c-.372.229-.525.593-.493,1.425" transform="translate(-262.366 -215.414)" fill="#fff"/><path d="M440.693,323.6l-.109.086a6.711,6.711,0,0,0-5.537-2.075l-1.983.264,1.026,7.719,5.364-1.217.16,1.2-5.5.2.914,6.87c.11.826.322,1.158.7,1.323.006.047.022.165.022.165l-2.9.386s-.016-.118-.022-.165c.326-.26.444-.636.334-1.462l-1.78-13.384c-.11-.826-.322-1.158-.7-1.324-.006-.047-.025-.189-.025-.189l8.9-1.183Z" transform="translate(-284.566 -211.99)" fill="#fff"/><path d="M491.987,312.285l-.1.1a6.712,6.712,0,0,0-5.737-1.433l-1.941.487,1.9,7.554,5.191-1.819.3,1.178-5.441.825,1.687,6.722c.2.808.452,1.114.85,1.235.012.046.041.162.041.162l-2.841.713-.041-.161c.294-.295.369-.682.166-1.49l-3.288-13.1c-.2-.808-.452-1.114-.85-1.235l-.046-.185,8.708-2.186Z" transform="translate(-318.382 -204.611)" fill="#fff"/><path d="M546.123,305.3l.532,2.88-9.04,3.429-.059-.156c.258-.327.287-.72-.008-1.5l-4.789-12.626c-.3-.78-.578-1.054-.988-1.128l-.068-.178,8.328-3.158,1.405,2.294-.078.131a6.536,6.536,0,0,0-5.78-.533l-1.559.591,2.491,6.569,5.426-2.617.431,1.135-5.789,1.661L539.8,310.6l1.8-.684a7.2,7.2,0,0,0,4.348-4.654Z" transform="translate(-351.336 -193.515)" fill="#fff"/><path d="M600.367,283.713l.078.147-3.24,1.717-.078-.147c.257-.838-.586-1.361-2.176-2.378l-4.336-2.742c-.3.189-.609.377-.924.544l-1.957,1.037L590.6,287.3c.39.736.7.974,1.121,1l.078.147-2.588,1.372-.078-.148c.215-.356.2-.75-.195-1.486l-6.321-11.931c-.4-.758-.7-.974-1.121-1l-.09-.169,4.082-2.163c3.262-1.728,6.854-2.069,8.314.688,1.048,1.978.106,4.013-1.742,5.612l3.655,2.321a14.075,14.075,0,0,0,4.653,2.17m-8.228-9.223c-.869-1.641-2.565-3.519-6.563-1.4l-1.957,1.037,4.024,7.6,1.957-1.037c3.977-2.107,3.4-4.575,2.538-6.2" transform="translate(-384.177 -179.454)" fill="#fff"/><path d="M649.628,247.936l1.224,2.661-7.917,5.549-.1-.136c.17-.381.1-.769-.377-1.451l-7.75-11.058c-.478-.683-.82-.88-1.235-.85l-.11-.156,7.293-5.111,1.927,1.877-.043.147a6.537,6.537,0,0,0-5.734.907l-1.365.957,4.032,5.753,4.614-3.874.7.995-5.2,3.035,5.221,7.449,1.58-1.107a7.2,7.2,0,0,0,3.067-5.581Z" transform="translate(-418.513 -156.857)" fill="#fff"/><path d="M687.537,191.1l.129.14a3.338,3.338,0,0,0,.7,2.979l9.349,10.166-.263.242-18.16-3,7.883,8.572a3.345,3.345,0,0,0,2.943.949l.113.122-2.366,2.176-.113-.122a3.344,3.344,0,0,0-.7-3.012l-8.028-8.729-2.444-.406,1.77-1.628,17.193,2.759-7.318-7.958a3.341,3.341,0,0,0-2.91-.948l-.129-.14Z" transform="translate(-447.068 -126.272)" fill="#fff"/><path d="M735.752,147l-.036.156a6.71,6.71,0,0,0-5.465,2.258l-.332.4,11.513,9.469c.643.529,1.04.609,1.433.469l.129.106-1.875,2.28-.129-.106c.061-.412-.094-.786-.737-1.316l-11.513-9.469-.333.4a6.711,6.711,0,0,0-1.161,5.8l-.146.065-1.759-2.434,7.684-9.343Z" transform="translate(-479.286 -96.303)" fill="#fff"/><path d="M315.038,13.082a3,3,0,0,1,1.646-2.171,4.756,4.756,0,0,1,1.742-.347q13.395-.032,26.789-.006a1.245,1.245,0,0,0,.976-.4q4.521-4.554,9.067-9.082A3.017,3.017,0,0,1,359.07.414a2.946,2.946,0,0,1,.826,4.422c-1.041,1.181-2.2,2.26-3.31,3.38-.742.748-1.49,1.49-2.306,2.3.259.012.428.025.6.025,2.342,0,4.685-.016,7.027.006a2.975,2.975,0,0,1,2.9,4.022,2.813,2.813,0,0,1-2.468,1.931,7.472,7.472,0,0,1-.876.04q-6.343,0-12.687-.006a1.146,1.146,0,0,0-.894.373q-3.557,3.586-7.135,7.15c-.122.122-.237.252-.446.475h.668q10.32,0,20.641,0a3.129,3.129,0,0,1,2.974,1.5,2.99,2.99,0,0,1-2.532,4.508c-.178.011-.358.006-.536.006q-13.37,0-26.74-.007a1.136,1.136,0,0,0-.89.373q-2.553,2.587-5.136,5.146a2.99,2.99,0,0,1-4.608-3.808c.476-.57,1.021-1.083,1.59-1.679-.228-.01-.4-.024-.564-.024q-3.2,0-6.392,0c-2.222,0-2.944-.49-3.735-2.531v-.976a8.1,8.1,0,0,1,.571-1.221,3.1,3.1,0,0,1,2.793-1.282q6.46.012,12.92-.008a1.127,1.127,0,0,0,.725-.266q3.711-3.667,7.387-7.369c.081-.081.144-.18.269-.339h-.674c-6.858,0-13.717.009-20.575-.016a4.984,4.984,0,0,1-1.83-.379,3.015,3.015,0,0,1-1.587-2.1Z" transform="translate(-208.169 0)" fill="#fff"/></g></svg>