<svg xmlns="http://www.w3.org/2000/svg" width="258.394" height="121.195" viewBox="0 0 258.394 121.195"><g transform="translate(-0.62 -0.027)"><path d="M143.325,611.826l-9.359,3.724-1,1.862-1.157-1.359,5.9-10.861.289-.605-9.958,3.978-1.015,1.862-1.148-1.35,5.9-10.861A13.857,13.857,0,0,0,133.4,593.7l.137-.118,2.265,2.659-.14.118c-.832-.068-1.319.583-2.172,2.141l-5.328,9.834,9.123-3.624c.282-.121.568-.245.832-.351a12.2,12.2,0,0,0,1.213-3.683l.14-.118,2.262,2.659-.137.118c-.832-.065-1.319.587-2.172,2.141l-5.328,9.837,9.126-3.6c2.026-.8,2.9-1.458,3.044-2.861l.137-.118,1.75,2.054-.137.118A9.916,9.916,0,0,0,143.325,611.826Z" transform="translate(-125.25 -548.731)" fill="#fff"/><path d="M190.528,680.172l-2.172,1.756-6.976-6.008.1-.121c.391.065.732-.087,1.241-.689l8.378-9.744c.518-.6.621-.962.5-1.34l.118-.137,6.426,5.536-1.282,2.216h-.146a6.22,6.22,0,0,0-2.172-5.08l-1.179-1.039L189,670.593l4.655,3.351-.754.875-4.034-4.09-5.654,6.563,1.4,1.216a6.864,6.864,0,0,0,5.871,1.523Z" transform="translate(-163.535 -597.224)" fill="#fff"/><path d="M274.1,744.8l-3.053-1.694.087-.143c.8-.227,1.027-1.008,1.275-2.765l.425-3.057-4.915-2.731-1.372,1.21c-1.635,1.452-2.275,2.368-1.936,3.724l-.078.14-2.34-1.3.078-.14a10.4,10.4,0,0,0,4.118-2.51L274,728.817l.292-2.067,1.552.869-1.722,12.217a13.627,13.627,0,0,0,.047,4.825Zm-1.241-7.848,1.1-7.869-5.9,5.207Z" transform="translate(-219.269 -640.578)" fill="#fff"/><path d="M338.955,768.82l-.059.146-3.252-1.272.059-.149c.763-.332.621-1.266.363-3.047l-.714-4.831c-.326-.1-.648-.208-.965-.332l-1.964-.766-2.126,5.427c-.289.738-.267,1.111-.022,1.427-.019.04-.059.146-.059.146l-2.6-1.015.056-.149c.394-.065.664-.31.953-1.064l4.695-11.972c.31-.763.267-1.114.022-1.43.019-.04.068-.168.068-.168l4.1,1.6c3.274,1.281,5.75,3.662,4.655,6.429-.776,1.986-2.833,2.569-5.132,2.228l.6,4.084A13.329,13.329,0,0,0,338.955,768.82Zm1.552-11.67c.645-1.645.95-4.034-3.063-5.607l-1.97-.77-2.985,7.624,1.964.769c3.991,1.561,5.412-.391,6.048-2.017Z" transform="translate(-264.396 -656.455)" fill="#fff"/><path d="M402.255,785.872l-1.157,2.535-8.927-2.262s.028-.109.04-.152c.379-.115.621-.407.813-1.176l3.159-12.462c.2-.77.124-1.139-.155-1.421l.047-.174,8.22,2.082-.158,2.557-.13.062a6.235,6.235,0,0,0-4.217-3.575l-1.552-.388-1.632,6.473,5.663.931-.285,1.12-5.421-1.862-2.132,8.4,1.781.453a6.87,6.87,0,0,0,5.933-1.241Z" transform="translate(-308.916 -670.932)" fill="#fff"/><path d="M509.137,796.348c-.161,4.487-4.115,7.795-9.371,7.606l-5.666-.211v-.158c.348-.192.518-.524.546-1.319l.462-12.85c.028-.791-.118-1.139-.45-1.353v-.183l5.666.2C505.594,788.28,509.3,791.886,509.137,796.348Zm-1.79-.062c.152-4.171-2.482-7.851-7.016-8.015l-3.379-.121-.559,15.515,3.379.121c4.537.171,7.426-3.308,7.575-7.491Z" transform="translate(-379.216 -682.739)" fill="#fff"/><path d="M570.682,788.932l.931,12.825c.059.791.242,1.12.621,1.294v.158l-2.793.211v-.158c.31-.23.459-.58.4-1.372l-.956-12.825c-.059-.791-.242-1.117-.6-1.3v-.18l2.793-.208v.18C570.741,787.79,570.608,788.14,570.682,788.932Z" transform="translate(-430.385 -682.394)" fill="#fff"/><path d="M612.654,782.7l-.1.087a6.4,6.4,0,0,0-5.34-1.787l-1.877.31,1.241,7.311,5.064-1.34.192,1.142-5.226.379,1.1,6.516c.133.782.348,1.089.717,1.241a1.152,1.152,0,0,0,.025.155l-2.749.469s-.019-.112-.025-.158c.31-.257.4-.621.267-1.4l-2.147-12.679c-.133-.782-.348-1.089-.717-1.241a1.532,1.532,0,0,0-.028-.177l8.428-1.43Z" transform="translate(-454.359 -677.366)" fill="#fff"/><path d="M665.618,769.045l-.09.1a6.41,6.41,0,0,0-5.508-1.167l-1.831.531,2.064,7.137,4.878-1.908.31,1.111-5.145.956,1.834,6.339c.22.763.469,1.046.853,1.145l.043.152-2.678.776-.047-.152c.27-.289.329-.661.109-1.421l-3.578-12.353c-.223-.76-.469-1.043-.853-1.145l-.05-.174,8.211-2.38Z" transform="translate(-490.83 -668.056)" fill="#fff"/><path d="M721.393,758.927l.621,2.725-8.487,3.569-.062-.146c.236-.31.248-.7-.059-1.424L708.419,751.8c-.31-.732-.587-.984-.977-1.039-.019-.04-.071-.168-.071-.168l7.817-3.289,1.415,2.135-.068.127a6.241,6.241,0,0,0-5.52-.31l-1.462.621,2.594,6.166,5.074-2.678.45,1.068-5.468,1.778,3.361,7.984,1.691-.714a6.848,6.848,0,0,0,3.966-4.58Z" transform="translate(-526.308 -654.751)" fill="#fff"/><path d="M776.592,734.46l.078.14-3.026,1.744-.078-.14c.214-.8-.621-1.272-2.154-2.188l-4.22-2.458c-.282.189-.565.379-.86.546l-1.828,1.055,2.911,5.049c.394.689.7.9,1.1.909l.081.14-2.417,1.393-.077-.14c.192-.348.158-.72-.236-1.409l-6.423-11.14c-.406-.707-.7-.9-1.1-.909l-.093-.158,3.814-2.2c3.044-1.753,6.451-2.2,7.935.372,1.064,1.862.239,3.817-1.468,5.4l3.559,2.085A13.374,13.374,0,0,0,776.592,734.46Zm-8.145-8.487c-.884-1.533-2.56-3.261-6.293-1.111l-1.828,1.055,4.09,7.091,1.825-1.052C769.964,729.806,769.319,727.475,768.447,725.974Z" transform="translate(-561.399 -638.173)" fill="#fff"/><path d="M826.827,695.67l1.241,2.483-7.345,5.557-.1-.127c.149-.366.071-.735-.407-1.368l-7.758-10.262c-.478-.621-.81-.81-1.2-.77l-.109-.143,6.78-5.111,1.9,1.722-.034.14a6.24,6.24,0,0,0-5.427,1.055l-1.266.959,4.034,5.337,4.26-3.842.7.931-4.85,3.063,5.222,6.914,1.465-1.1a6.858,6.858,0,0,0,2.731-5.418Z" transform="translate(-597.884 -612.425)" fill="#fff"/><path d="M865.082,635.82l.127.127a3.181,3.181,0,0,0,.769,2.811l9.238,9.362-.242.239L857.6,646.113,865.387,654a3.188,3.188,0,0,0,2.836.807l.109.112-2.172,2.15s-.077-.081-.112-.112a3.183,3.183,0,0,0-.766-2.845l-7.935-8.037-2.337-.31,1.629-1.607,16.446,2.048-7.236-7.323a3.177,3.177,0,0,0-2.793-.8l-.127-.127Z" transform="translate(-628.134 -577.864)" fill="#fff"/><path d="M913.544,588.3l-.031.152a6.364,6.364,0,0,0-5.123,2.33l-.31.4,11.276,8.626c.621.481,1.008.543,1.378.4l.127.1-1.71,2.234-.124-.1c.043-.394-.118-.745-.748-1.241l-11.273-8.627-.31.394a6.379,6.379,0,0,0-.909,5.558l-.137.065-1.759-2.256,7-9.151Z" transform="translate(-661.846 -544.318)" fill="#fff"/><path d="M495.73,461.587a2.867,2.867,0,0,1,1.552-2.067,4.475,4.475,0,0,1,1.66-.332q12.754-.028,25.51,0a1.179,1.179,0,0,0,.931-.385q4.307-4.344,8.636-8.648a2.865,2.865,0,0,1,3.631-.621,2.806,2.806,0,0,1,.785,4.211c-.99,1.126-2.091,2.154-3.15,3.221-.708.711-1.421,1.418-2.2,2.194.248,0,.406.025.568.025,2.231,0,4.462-.016,6.69,0a2.832,2.832,0,0,1,2.765,3.829,2.675,2.675,0,0,1-2.349,1.837,6.794,6.794,0,0,1-.835.04H527.844a1.092,1.092,0,0,0-.85.357q-3.376,3.395-6.783,6.808c-.115.115-.223.239-.425.453h20.278a2.984,2.984,0,0,1,2.833,1.427,2.848,2.848,0,0,1-2.414,4.292H514.507a1.083,1.083,0,0,0-.847.354q-2.43,2.467-4.89,4.9a2.847,2.847,0,0,1-4.388-3.628c.453-.543.971-1.03,1.514-1.6-.217,0-.379-.025-.537-.025h-6.073c-2.116,0-2.793-.465-3.556-2.411v-.931a7.517,7.517,0,0,1,.543-1.164,2.934,2.934,0,0,1,2.659-1.22h12.3a1.07,1.07,0,0,0,.692-.251c2.355-2.33,4.692-4.676,7.035-7.019a3.818,3.818,0,0,0,.255-.31h-.639q-9.8,0-19.6-.016a4.8,4.8,0,0,1-1.741-.36,2.866,2.866,0,0,1-1.511-2Z" transform="translate(-380.341 -449.11)" fill="#fff"/></g></svg>