<svg xmlns="http://www.w3.org/2000/svg" width="398" height="165.305" viewBox="0 0 398 165.305"><g transform="translate(338.604 -115.79)"><path d="M205.023,157.987l-4.047-.491-2.2-9.591.232-.05.067.293a1.522,1.522,0,0,0,1.8,1.148l12.823-2.945a1.521,1.521,0,0,0,1.114-1.817l-.067-.292.23-.057,1.162,5.063-.232.049-.067-.293a1.521,1.521,0,0,0-1.795-1.148l-13.8,3.169.762,3.318c.563,2.451,2.047,3.1,3.973,3.411Z" transform="translate(-457.504 29.542)" fill="#fff"/><path d="M205.023,157.987l-4.047-.491-2.2-9.591.232-.05.067.293a1.522,1.522,0,0,0,1.8,1.148l12.823-2.945a1.521,1.521,0,0,0,1.114-1.817l-.067-.292.23-.057,1.162,5.063-.232.049-.067-.293a1.521,1.521,0,0,0-1.795-1.148l-13.8,3.169.762,3.318c.563,2.451,2.047,3.1,3.973,3.411Z" transform="translate(-457.504 29.542)" fill="#fff"/><path d="M238.3,203.907l-.217.1-.159-.353a1.211,1.211,0,0,0-1.536-.684l-8.56,3.848c-3.394,1.525-6.707.209-8.28-3.293-1.619-3.6-.45-7.013,2.921-8.529l8.548-3.842a1.208,1.208,0,0,0,.558-1.627l-.158-.352.217-.1,1.976,4.4-.217.1-.159-.353a1.207,1.207,0,0,0-1.553-.674l-8.262,3.714c-3.153,1.417-4.429,4.2-3.19,6.958a5.082,5.082,0,0,0,7.145,2.589l8.539-3.839a1.207,1.207,0,0,0,.528-1.61l-.158-.354.216-.1Z" transform="translate(-469.5 2.69)" fill="#fff"/><path d="M238.3,203.907l-.217.1-.159-.353a1.211,1.211,0,0,0-1.536-.684l-8.56,3.848c-3.394,1.525-6.707.209-8.28-3.293-1.619-3.6-.45-7.013,2.921-8.529l8.548-3.842a1.208,1.208,0,0,0,.558-1.627l-.158-.352.217-.1,1.976,4.4-.217.1-.159-.353a1.207,1.207,0,0,0-1.553-.674l-8.262,3.714c-3.153,1.417-4.429,4.2-3.19,6.958a5.082,5.082,0,0,0,7.145,2.589l8.539-3.839a1.207,1.207,0,0,0,.528-1.61l-.158-.354.216-.1Z" transform="translate(-469.5 2.69)" fill="#fff"/><path d="M252.148,263.747l-.192.141-3.415-4.673.192-.14.176.242a.992.992,0,0,0,1.664-.176l2.5-6.359-6.8.45a1,1,0,0,0-.685,1.541l.176.241-.189.138L242.4,250.8l.189-.138.194.266a3.118,3.118,0,0,0,2.556,1.125l8.15-.326,2.849-7.243a3.068,3.068,0,0,0-.284-2.756l-.2-.268.191-.14,3.4,4.649-.191.139-.176-.241a1,1,0,0,0-1.668.171l-2.218,5.672,6.035-.4a.99.99,0,0,0,.712-1.521l-.176-.242.192-.14,3.158,4.321-.192.141-.2-.268a3.068,3.068,0,0,0-2.538-1.109l-7.4.255-3.127,8a3.056,3.056,0,0,0,.3,2.742Z" transform="translate(-483.6 -28.563)" fill="#fff"/><path d="M252.148,263.747l-.192.141-3.415-4.673.192-.14.176.242a.992.992,0,0,0,1.664-.176l2.5-6.359-6.8.45a1,1,0,0,0-.685,1.541l.176.241-.189.138L242.4,250.8l.189-.138.194.266a3.118,3.118,0,0,0,2.556,1.125l8.15-.326,2.849-7.243a3.068,3.068,0,0,0-.284-2.756l-.2-.268.191-.14,3.4,4.649-.191.139-.176-.241a1,1,0,0,0-1.668.171l-2.218,5.672,6.035-.4a.99.99,0,0,0,.712-1.521l-.176-.242.192-.14,3.158,4.321-.192.141-.2-.268a3.068,3.068,0,0,0-2.538-1.109l-7.4.255-3.127,8a3.056,3.056,0,0,0,.3,2.742Z" transform="translate(-483.6 -28.563)" fill="#fff"/><path d="M311.577,296.445l-.159.176-.288-.258a1.213,1.213,0,0,0-1.682,0l-6.275,6.981c-2.488,2.769-6.05,2.9-8.905.337-2.938-2.64-3.248-6.234-.777-8.983l6.266-6.972a1.209,1.209,0,0,0-.147-1.713l-.288-.258.158-.177,3.586,3.223-.158.176-.288-.259a1.206,1.206,0,0,0-1.692.012l-6.056,6.739c-2.312,2.571-2.353,5.634-.1,7.655a5.083,5.083,0,0,0,7.583-.522l6.259-6.964a1.209,1.209,0,0,0-.169-1.688l-.288-.258.159-.177Z" transform="translate(-513.169 -55.032)" fill="#fff"/><path d="M311.577,296.445l-.159.176-.288-.258a1.213,1.213,0,0,0-1.682,0l-6.275,6.981c-2.488,2.769-6.05,2.9-8.905.337-2.938-2.64-3.248-6.234-.777-8.983l6.266-6.972a1.209,1.209,0,0,0-.147-1.713l-.288-.258.158-.177,3.586,3.223-.158.176-.288-.259a1.206,1.206,0,0,0-1.692.012l-6.056,6.739c-2.312,2.571-2.353,5.634-.1,7.655a5.083,5.083,0,0,0,7.583-.522l6.259-6.964a1.209,1.209,0,0,0-.169-1.688l-.288-.258.159-.177Z" transform="translate(-513.169 -55.032)" fill="#fff"/><path d="M350.7,327.438c2.488,1.443,3.163,3.793,1.776,6.186-1.152,1.988-3.783,3.037-5.758,1.893a5.756,5.756,0,0,1,.632,2.3s.305,3.554.6,4.883a4.285,4.285,0,0,0,1.893,3.171l-.119.206-1.126-.653a5.106,5.106,0,0,1-2.539-3.877c-.072-.414-.433-5.122-.476-5.411-.146-.985-.332-2.044-1.083-2.479l.11-.19s.461.281,1.089.622a3.553,3.553,0,0,0,4.441-.274,4.911,4.911,0,0,0,.843-1.154c1.026-1.886.748-3.637-.732-4.607-1.014-.664-2.286-1.334-2.547-1.5L340.6,338.791a1.52,1.52,0,0,0,.567,2.054l.26.151-.116.207-4.486-2.6.122-.2.26.15a1.519,1.519,0,0,0,2.058-.519l6.6-11.392a1.521,1.521,0,0,0-.567-2.054l-.259-.15.115-.206Z" transform="translate(-540.084 -78.153)" fill="#fff"/><path d="M350.7,327.438c2.488,1.443,3.163,3.793,1.776,6.186-1.152,1.988-3.783,3.037-5.758,1.893a5.756,5.756,0,0,1,.632,2.3s.305,3.554.6,4.883a4.285,4.285,0,0,0,1.893,3.171l-.119.206-1.126-.653a5.106,5.106,0,0,1-2.539-3.877c-.072-.414-.433-5.122-.476-5.411-.146-.985-.332-2.044-1.083-2.479l.11-.19s.461.281,1.089.622a3.553,3.553,0,0,0,4.441-.274,4.911,4.911,0,0,0,.843-1.154c1.026-1.886.748-3.637-.732-4.607-1.014-.664-2.286-1.334-2.547-1.5L340.6,338.791a1.52,1.52,0,0,0,.567,2.054l.26.151-.116.207-4.486-2.6.122-.2.26.15a1.519,1.519,0,0,0,2.058-.519l6.6-11.392a1.521,1.521,0,0,0-.567-2.054l-.259-.15.115-.206Z" transform="translate(-540.084 -78.153)" fill="#fff"/><path d="M412.846,352.2l-.08.225-.313-.112a3.064,3.064,0,0,0-2.7.5l-6.963,5.578-1.9,5.355a1.521,1.521,0,0,0,.933,1.916l.283.1-.076.225-4.892-1.738.083-.222.283.1a1.521,1.521,0,0,0,1.927-.884l1.915-5.391-1.729-8.632a3,3,0,0,0-1.785-2.106l-.3-.109.08-.222,5.5,1.954-.079.223-.282-.1a1,1,0,0,0-1.277,1.111l1.128,7.449,5.789-4.994.019-.016a1,1,0,0,0-.311-1.648l-.282-.1.08-.224Z" transform="translate(-576.155 -91.647)" fill="#fff"/><path d="M412.846,352.2l-.08.225-.313-.112a3.064,3.064,0,0,0-2.7.5l-6.963,5.578-1.9,5.355a1.521,1.521,0,0,0,.933,1.916l.283.1-.076.225-4.892-1.738.083-.222.283.1a1.521,1.521,0,0,0,1.927-.884l1.915-5.391-1.729-8.632a3,3,0,0,0-1.785-2.106l-.3-.109.08-.222,5.5,1.954-.079.223-.282-.1a1,1,0,0,0-1.277,1.111l1.128,7.449,5.789-4.994.019-.016a1,1,0,0,0-.311-1.648l-.282-.1.08-.224Z" transform="translate(-576.155 -91.647)" fill="#fff"/><path d="M498.565,378.557l-.373,3.718a7.348,7.348,0,0,1-6.749,3.384c-4.962-.136-8.4-3.609-8.278-8.853.117-5.15,3.589-8.537,8.809-8.419a10.146,10.146,0,0,1,5.577,1.729l.4,3.362-.2,0a5.7,5.7,0,0,0-5.8-4.377c-4.172-.094-6.9,3-7.008,7.724-.108,4.77,2.527,7.94,6.514,8.127,3.37.066,6.259-1.547,6.908-6.394Z" transform="translate(-627.617 -104.567)" fill="#fff"/><path d="M498.565,378.557l-.373,3.718a7.348,7.348,0,0,1-6.749,3.384c-4.962-.136-8.4-3.609-8.278-8.853.117-5.15,3.589-8.537,8.809-8.419a10.146,10.146,0,0,1,5.577,1.729l.4,3.362-.2,0a5.7,5.7,0,0,0-5.8-4.377c-4.172-.094-6.9,3-7.008,7.724-.108,4.77,2.527,7.94,6.514,8.127,3.37.066,6.259-1.547,6.908-6.394Z" transform="translate(-627.617 -104.567)" fill="#fff"/><path d="M556.351,376.805l-.711,4.013-9.7,1.675-.037-.235.3-.051a1.52,1.52,0,0,0,1.244-1.73l-2.239-12.963a1.522,1.522,0,0,0-1.753-1.212l-.3.051-.044-.233,5.118-.884.036.235-.3.051a1.52,1.52,0,0,0-1.244,1.73l2.409,13.951,3.355-.58c2.479-.428,3.209-1.874,3.623-3.779Z" transform="translate(-663.48 -102.684)" fill="#fff"/><path d="M556.351,376.805l-.711,4.013-9.7,1.675-.037-.235.3-.051a1.52,1.52,0,0,0,1.244-1.73l-2.239-12.963a1.522,1.522,0,0,0-1.753-1.212l-.3.051-.044-.233,5.118-.884.036.235-.3.051a1.52,1.52,0,0,0-1.244,1.73l2.409,13.951,3.355-.58c2.479-.428,3.209-1.874,3.623-3.779Z" transform="translate(-663.48 -102.684)" fill="#fff"/><path d="M604.226,364.349l-9.256,3.342-.077-.224.282-.1a1.52,1.52,0,0,0,.923-1.92l-4.514-12.5a1.522,1.522,0,0,0-1.885-.765l-.282.1-.084-.221,6.525-2.355a10.293,10.293,0,0,0,2.516-1.367l.235.653.135.373.648,1.793-.227.078-.143-.4a1.416,1.416,0,0,0-1.73-.878l-4.552,1.643,2.492,6.9L599,357.142a1.17,1.17,0,0,0,.683-1.49l-.119-.328.217-.082,1.276,3.533-.218.076-.119-.329a1.17,1.17,0,0,0-1.454-.718l-3.8,1.371,2.416,6.69,3.2-1.156c2.365-.855,2.833-2.407,2.908-4.355l.223-.081Z" transform="translate(-691.126 -92.575)" fill="#fff"/><path d="M604.226,364.349l-9.256,3.342-.077-.224.282-.1a1.52,1.52,0,0,0,.923-1.92l-4.514-12.5a1.522,1.522,0,0,0-1.885-.765l-.282.1-.084-.221,6.525-2.355a10.293,10.293,0,0,0,2.516-1.367l.235.653.135.373.648,1.793-.227.078-.143-.4a1.416,1.416,0,0,0-1.73-.878l-4.552,1.643,2.492,6.9L599,357.142a1.17,1.17,0,0,0,.683-1.49l-.119-.328.217-.082,1.276,3.533-.218.076-.119-.329a1.17,1.17,0,0,0-1.454-.718l-3.8,1.371,2.416,6.69,3.2-1.156c2.365-.855,2.833-2.407,2.908-4.355l.223-.081Z" transform="translate(-691.126 -92.575)" fill="#fff"/><path d="M662.277,339.431a2.349,2.349,0,0,0,2.557.21l.171-.1.122.2-4.585,2.748-.121-.2.179-.107a1.009,1.009,0,0,0,.007-1.742l-3.381-2.686-5.484,3.286.722,4.3a1.008,1.008,0,0,0,1.537.8l.179-.107.121.2-4.1,2.457-.122-.2.183-.11a2.349,2.349,0,0,0,1.017-2.35L649.33,332.3a12.551,12.551,0,0,0-.5-2.549l.183-.11Zm-5.647-2.152-6.371-5.064,1.356,8.069Z" transform="translate(-726.713 -81.391)" fill="#fff"/><path d="M662.277,339.431a2.349,2.349,0,0,0,2.557.21l.171-.1.122.2-4.585,2.748-.121-.2.179-.107a1.009,1.009,0,0,0,.007-1.742l-3.381-2.686-5.484,3.286.722,4.3a1.008,1.008,0,0,0,1.537.8l.179-.107.121.2-4.1,2.457-.122-.2.183-.11a2.349,2.349,0,0,0,1.017-2.35L649.33,332.3a12.551,12.551,0,0,0-.5-2.549l.183-.11Zm-5.647-2.152-6.371-5.064,1.356,8.069Z" transform="translate(-726.713 -81.391)" fill="#fff"/><path d="M695.605,278.921l.161.175-.318.3a1.465,1.465,0,0,0-.087,2.038l8.436,8.9a24.221,24.221,0,0,0,2.24,2.049l-.157.149-18.895-1.12L695.114,300a1.466,1.466,0,0,0,2.04.024l.318-.3.166.17-3.549,3.363-.161-.175.318-.3a1.466,1.466,0,0,0,.075-2.051l-8.482-8.952a20.7,20.7,0,0,0-2.2-2l.169-.161,18.878,1.129-8.1-8.545a1.464,1.464,0,0,0-2.052-.037l-.319.3-.166-.169Z" transform="translate(-747.538 -51.053)" fill="#fff"/><path d="M695.605,278.921l.161.175-.318.3a1.465,1.465,0,0,0-.087,2.038l8.436,8.9a24.221,24.221,0,0,0,2.24,2.049l-.157.149-18.895-1.12L695.114,300a1.466,1.466,0,0,0,2.04.024l.318-.3.166.17-3.549,3.363-.161-.175.318-.3a1.466,1.466,0,0,0,.075-2.051l-8.482-8.952a20.7,20.7,0,0,0-2.2-2l.169-.161,18.878,1.129-8.1-8.545a1.464,1.464,0,0,0-2.052-.037l-.319.3-.166-.169Z" transform="translate(-747.538 -51.053)" fill="#fff"/><path d="M742.406,262.037l-3.077,4.184-.188-.143.177-.242a1.521,1.521,0,0,0-.3-2.109l-10.608-7.8a1.522,1.522,0,0,0-2.1.346l-.178.242-.193-.138,3.076-4.183.189.144-.178.242a1.52,1.52,0,0,0,.29,2.1l10.613,7.8a1.52,1.52,0,0,0,2.1-.34l.179-.242Z" transform="translate(-772.841 -35.065)" fill="#fff"/><path d="M742.406,262.037l-3.077,4.184-.188-.143.177-.242a1.521,1.521,0,0,0-.3-2.109l-10.608-7.8a1.522,1.522,0,0,0-2.1.346l-.178.242-.193-.138,3.076-4.183.189.144-.178.242a1.52,1.52,0,0,0,.29,2.1l10.613,7.8a1.52,1.52,0,0,0,2.1-.34l.179-.242Z" transform="translate(-772.841 -35.065)" fill="#fff"/><path d="M754.118,195.033l.212.107-.191.394a1.465,1.465,0,0,0,.635,1.938l11.028,5.366a24.223,24.223,0,0,0,2.818,1.131l-.095.194-18.081,5.6,10.628,5.172a1.467,1.467,0,0,0,1.918-.7l.191-.394.214.1-2.139,4.4-.213-.107.192-.393a1.466,1.466,0,0,0-.651-1.947L749.5,210.5a20.693,20.693,0,0,0-2.763-1.1l.1-.21L764.9,203.6l-10.586-5.151a1.466,1.466,0,0,0-1.935.688l-.191.394-.215-.1Z" transform="translate(-785.278 -0.873)" fill="#fff"/><path d="M754.118,195.033l.212.107-.191.394a1.465,1.465,0,0,0,.635,1.938l11.028,5.366a24.223,24.223,0,0,0,2.818,1.131l-.095.194-18.081,5.6,10.628,5.172a1.467,1.467,0,0,0,1.918-.7l.191-.394.214.1-2.139,4.4-.213-.107.192-.393a1.466,1.466,0,0,0-.651-1.947L749.5,210.5a20.693,20.693,0,0,0-2.763-1.1l.1-.21L764.9,203.6l-10.586-5.151a1.466,1.466,0,0,0-1.935.688l-.191.394-.215-.1Z" transform="translate(-785.278 -0.873)" fill="#fff"/><path d="M785.686,140.991c-.172.748.107,1.256.778,1.4l3.825.884a8.33,8.33,0,0,1,1.434,7.377c-1.16,4.913-5.306,7.53-10.34,6.367-5.051-1.168-7.635-5.34-6.5-10.252a10.081,10.081,0,0,1,2.858-5.245l3.375.288-.045.193c-2.809.09-4.787,1.863-5.493,4.917-.906,3.921,1.57,7.292,6.206,8.364,4.615,1.066,8.32-.877,9.247-4.793a7.942,7.942,0,0,0-.8-5.683l-4.1-.947c-.675-.156-1.157.2-1.329.946l-.084.364-.231-.053,1.047-4.529.231.053Z" transform="translate(-801.958 31.693)" fill="#fff"/><path d="M785.686,140.991c-.172.748.107,1.256.778,1.4l3.825.884a8.33,8.33,0,0,1,1.434,7.377c-1.16,4.913-5.306,7.53-10.34,6.367-5.051-1.168-7.635-5.34-6.5-10.252a10.081,10.081,0,0,1,2.858-5.245l3.375.288-.045.193c-2.809.09-4.787,1.863-5.493,4.917-.906,3.921,1.57,7.292,6.206,8.364,4.615,1.066,8.32-.877,9.247-4.793a7.942,7.942,0,0,0-.8-5.683l-4.1-.947c-.675-.156-1.157.2-1.329.946l-.084.364-.231-.053,1.047-4.529.231.053Z" transform="translate(-801.958 31.693)" fill="#fff"/><path d="M12.767,29.987a33.011,33.011,0,0,1-3.934-.381,16.439,16.439,0,0,1-3.368-.928,9.146,9.146,0,0,1-2.728-1.614A7.772,7.772,0,0,1,.9,24.569,9.968,9.968,0,0,1,0,21.043a.38.38,0,0,1,.371-.408,1.294,1.294,0,0,0,.371.037q1.54,0,4.676-.074t4.676-.074a.778.778,0,0,1,.612.25,1.981,1.981,0,0,1,.362.612,6.219,6.219,0,0,0,.334.724,1.542,1.542,0,0,0,.668.612,2.588,2.588,0,0,0,1.216.251,2.643,2.643,0,0,0,1.605-.51,1.626,1.626,0,0,0,.7-1.383,1.37,1.37,0,0,0-.594-1.058,4.719,4.719,0,0,0-1.568-.789q-.974-.306-1.856-.52t-1.809-.371q-.928-.157-1.077-.195A15.788,15.788,0,0,1,2.2,15.1,6.423,6.423,0,0,1,.223,10.132a9.449,9.449,0,0,1,.817-4A8.288,8.288,0,0,1,3.173,3.238,11.738,11.738,0,0,1,6.291,1.364,16.427,16.427,0,0,1,9.928.306,23.1,23.1,0,0,1,13.732,0a15.607,15.607,0,0,1,8.313,1.93q1.131,1.133,1.661,1.717A9.9,9.9,0,0,1,24.727,5.01a5.453,5.453,0,0,1,.687,1.531,10.263,10.263,0,0,1,.269,1.846l-.668.668q-3.8.148-8.536.148a2.9,2.9,0,0,1-.956-.13.876.876,0,0,1-.483-.334c-.08-.136-.161-.278-.241-.427s-.155-.291-.223-.427a.765.765,0,0,0-.427-.334,2.372,2.372,0,0,0-.863-.13,3.169,3.169,0,0,0-.473.055q-.325.056-.761.176a2.091,2.091,0,0,0-.751.371.731.731,0,0,0-.315.584.949.949,0,0,0,.418.742,2.736,2.736,0,0,0,.881.483q.464.149,1.151.325t.853.232q4.045,1.021,4.824,1.262a11.822,11.822,0,0,1,5.753,3.358,7.463,7.463,0,0,1,1.559,4.844,10.678,10.678,0,0,1-.454,3.21,8.227,8.227,0,0,1-1.2,2.45A7.963,7.963,0,0,1,22.917,27.3a11.47,11.47,0,0,1-2.255,1.243,15.9,15.9,0,0,1-2.588.779q-1.448.315-2.663.455t-2.644.213" transform="translate(-338.604 115.79)" fill="#fff"/><path d="M99.306,29.808v-.7q0-3.173.074-9.371t.074-9.371V2.678h21.6V9.34c0,.049-.006.139-.018.269a.673.673,0,0,1-.065.269q-.046.074-.13.214a.484.484,0,0,1-.195.194,1.47,1.47,0,0,1-.3.1,1.681,1.681,0,0,1-.408.047h-.52q-4.806,0-8.759-.149-.037.3-.121.919t-.13,1.095c-.031.316-.047.622-.047.919H119.2a1.279,1.279,0,0,1,.742.148.583.583,0,0,1,.186.483c0,.062-.006.161-.018.3s-.018.235-.018.3q0,.891.055,2.635t.056,2.635q-.056.371-.3.371a.25.25,0,0,1-.186-.074q-5.864.3-8.684.3h-.483v2.672q1.652,0,4.778-.149t4.686-.148q1.225,0,1.41.52v1.41q0,.891.037,2.635t.037,2.636q0,.928-.742.928-.965,0-2.969-.018t-3.044-.019q-2.672,0-7.645.139t-7.2.158l-.52-.593a6.381,6.381,0,0,1-.074-.669" transform="translate(-398.006 114.188)" fill="#fff"/><path d="M182.125,2.773q0-.538.631-.538,1.8,0,5.261-.037t5.168-.037a1.079,1.079,0,0,1,.891.52l3.192,18.483q.3-1.782,1.058-5.02t.984-4.3l1.856-9.278q.148-.445,7.608-.445h2.969a.748.748,0,0,1,.446.631L208.03,17.786q-.13.5-.491,2.217t-.724,3.285q-.362,1.568-.825,3.275a17.207,17.207,0,0,1-.993,2.82q-.529,1.113-1.011,1.281-.668,0-1.985-.056t-1.985-.055h-1.337q-1.262.111-2.755.148t-3.183.056q-1.689.018-2.709.055Z" transform="translate(-447.546 114.519)" fill="#fff"/><path d="M288.127,29.808v-.7q0-3.173.074-9.371t.074-9.371V2.678h21.6V9.34c0,.049-.006.139-.019.269a.673.673,0,0,1-.065.269q-.046.074-.13.214a.484.484,0,0,1-.195.194,1.472,1.472,0,0,1-.3.1,1.682,1.682,0,0,1-.408.047h-.52q-4.806,0-8.759-.149-.037.3-.121.919t-.13,1.095c-.031.316-.047.622-.047.919h8.833a1.279,1.279,0,0,1,.742.148.583.583,0,0,1,.186.483c0,.062-.006.161-.018.3s-.018.235-.018.3q0,.891.055,2.635t.056,2.635q-.056.371-.3.371a.25.25,0,0,1-.186-.074q-5.864.3-8.684.3h-.483v2.672q1.652,0,4.778-.149t4.686-.148q1.225,0,1.411.52v1.41q0,.891.037,2.635t.037,2.636q0,.928-.742.928-.965,0-2.969-.018t-3.043-.019q-2.672,0-7.645.139t-7.2.158l-.52-.593a6.35,6.35,0,0,1-.074-.669" transform="translate(-510.953 114.188)" fill="#fff"/><path d="M376.251,30.274V21.887q-.037-4.6.3-17.555V2.811q0-.408.148-.483h12.767q.186,0,.751,1.41t1.373,3.628q.807,2.217,1.141,3.052l2.6,6.792v-7.2q0-.928.047-3.4t.028-3.869q0-.52,2.969-.52.928,0,2.542.037t1.985.037h1.41c.2,0,.3.037.3.112q.112,5.159.111,14.771V30.052q-.13.482-1.188.482h-.482q-.965,0-2.839.037t-2.839.037h-5.456a6.946,6.946,0,0,1-1.076-2.338q-.873-2.431-2.6-7.033t-1.93-5.14q0,1.1-.019,3.266t-.018,3.266q0,.817.037,2.45t.037,2.45v2.338q0,.853-.742.853h-8.536Z" transform="translate(-563.664 114.464)" fill="#fff"/><path d="M552.077,29.987a33,33,0,0,1-3.934-.381,16.432,16.432,0,0,1-3.368-.928,9.151,9.151,0,0,1-2.728-1.614,7.768,7.768,0,0,1-1.837-2.5,9.961,9.961,0,0,1-.9-3.526.379.379,0,0,1,.37-.408,1.3,1.3,0,0,0,.372.037q1.54,0,4.676-.074t4.676-.074a.778.778,0,0,1,.612.25,1.989,1.989,0,0,1,.362.612,6.3,6.3,0,0,0,.334.724,1.544,1.544,0,0,0,.669.612,2.587,2.587,0,0,0,1.215.251,2.642,2.642,0,0,0,1.6-.51,1.626,1.626,0,0,0,.7-1.383,1.37,1.37,0,0,0-.594-1.058,4.719,4.719,0,0,0-1.568-.789q-.975-.306-1.856-.52t-1.809-.371q-.928-.157-1.076-.195a15.79,15.79,0,0,1-6.486-3.043,6.426,6.426,0,0,1-1.976-4.973,9.451,9.451,0,0,1,.816-4,8.292,8.292,0,0,1,2.134-2.895A11.731,11.731,0,0,1,545.6,1.364,16.428,16.428,0,0,1,549.237.306a23.1,23.1,0,0,1,3.8-.306,15.608,15.608,0,0,1,8.313,1.93q1.132,1.133,1.661,1.717a9.9,9.9,0,0,1,1.021,1.364,5.468,5.468,0,0,1,.687,1.531,10.31,10.31,0,0,1,.269,1.846l-.668.668q-3.8.148-8.536.148a2.9,2.9,0,0,1-.956-.13.877.877,0,0,1-.482-.334q-.121-.2-.241-.427t-.223-.427a.767.767,0,0,0-.427-.334,2.375,2.375,0,0,0-.863-.13,3.16,3.16,0,0,0-.474.055q-.325.056-.761.176a2.091,2.091,0,0,0-.752.371.732.732,0,0,0-.316.584.951.951,0,0,0,.418.742,2.744,2.744,0,0,0,.882.483q.463.149,1.15.325t.854.232q4.045,1.021,4.825,1.262a11.823,11.823,0,0,1,5.752,3.358,7.463,7.463,0,0,1,1.559,4.844,10.678,10.678,0,0,1-.454,3.21,8.241,8.241,0,0,1-1.2,2.45,7.99,7.99,0,0,1-1.856,1.781,11.471,11.471,0,0,1-2.255,1.243,15.906,15.906,0,0,1-2.588.779q-1.447.315-2.663.455t-2.644.213" transform="translate(-661.203 115.79)" fill="#fff"/><path d="M633.627,8.079q0-.334.037-.993t.038-.9q0-.093-.038-.668t-.037-1q0-1.966.371-1.967a.825.825,0,0,1,.26.037q3.879,0,11.5-.093t11.4-.093a2.608,2.608,0,0,1,1.2.167.727.727,0,0,1,.251.649v.52q0,.965.019,2.849t.019,2.867q0,.966-.52.965-1.04,0-3.1-.037t-3.1-.037V30.236a.671.671,0,0,1-.631.594q-.65,0-1.893-.018t-1.893-.019a.107.107,0,0,0-.075.037q-.817,0-2.292-.018t-2.2-.019h-1.113q-.372.037-1.077.037l-.742-.891q0-2.82.185-8.387t.186-8.388q0-.13-.009-.427c-.007-.2-.009-.358-.009-.482s-.01-.278-.028-.464a1.9,1.9,0,0,0-.093-.455,3.036,3.036,0,0,0-.158-.352.6.6,0,0,0-.251-.26.8.8,0,0,0-.38-.084h-5.307q-.519-.148-.519-2.561" transform="translate(-717.621 114.353)" fill="#fff"/><path d="M716.216,30.089q1.151-4.249,2.543-8.628t3.461-10.475q2.068-6.1,2.829-8.434a3.188,3.188,0,0,1,.3-.445h3.118q1.094,0,3.229-.037t3.229-.037h3.118c.186,0,.34,0,.464.009s.272.022.445.047a1.5,1.5,0,0,1,.418.111.713.713,0,0,1,.269.223.572.572,0,0,1,.112.352L748.3,29.885a.522.522,0,0,1-.269.51,2.476,2.476,0,0,1-1.011.139h-1.708q-.742,0-2.208.018t-2.208.018q-.223,0-.9.028t-1.141.018q-.464-.009-1.029-.055a2.756,2.756,0,0,1-.91-.2.762.762,0,0,1-.436-.418V28.716a5.38,5.38,0,0,0-.649-1.707q-.464-.779-.983-.779h-6.383l-.965,3.934q-.205.445-2.079.445h-1.484q-.8,0-2.375.056t-2.375.056h-.52q-.3,0-.937.018t-.993.019a6.529,6.529,0,0,1-.52-.668m12.878-11.264.52.872h1.225a19.327,19.327,0,0,0,2.718-.176q1.234-.177,1.234-.566L732.4,8.267q-.334,0-.9,1.262a14.767,14.767,0,0,0-.919,2.858Z" transform="translate(-767.023 114.574)" fill="#fff"/><path d="M853.9,30.384a2.759,2.759,0,0,1-1.717.483,28.784,28.784,0,0,1-3.219-.037q-1.912-.111-2.041-.111-1.262,0-1.819-.037H843.25q-.409-.13-.687-1.216a28.469,28.469,0,0,1-.547-3.117q-.269-2.032-.288-2.162a4.147,4.147,0,0,0-.593-2.422,2.467,2.467,0,0,0-1.893-.584h-.817v9.056q-.037.222-.389.371a3.321,3.321,0,0,1-1.012.195q-.659.046-1.169.056t-1.346-.009q-.835-.019-1.021-.019h-2.672q-2.265,0-3.414.037a5.04,5.04,0,0,1-.52-.26V2.921q0-.52,1.484-.52h16.181q4.212.112,6.411,2a6.669,6.669,0,0,1,2.2,5.344q0,4.491-4.528,6.569a5.456,5.456,0,0,1,1.5.724,5.662,5.662,0,0,1,1.113.993,5.407,5.407,0,0,1,.779,1.271,10.414,10.414,0,0,1,.52,1.392,13.163,13.163,0,0,1,.325,1.54q.139.891.195,1.54t.139,1.549q.083.9.139,1.42v1.633a3.242,3.242,0,0,0,.344.835,4.677,4.677,0,0,1,.361.8q0,.371-.148.371M838.313,10.269q0,1.113.019,1.652a8.464,8.464,0,0,0,.2,1.41,2.475,2.475,0,0,0,.556,1.243,6.306,6.306,0,0,0,1.475-.167,5.1,5.1,0,0,0,1.345-.538,2.625,2.625,0,0,0,1.03-1.1,3.768,3.768,0,0,0,.38-1.754,2.361,2.361,0,0,0-.2-1.011,1.669,1.669,0,0,0-.594-.7,4.517,4.517,0,0,0-.77-.418,3.533,3.533,0,0,0-.927-.223q-.547-.064-.863-.083t-.761-.019h-.446a.686.686,0,0,0-.362.52,6.156,6.156,0,0,0-.084,1.188" transform="translate(-833.221 114.353)" fill="#fff"/><path d="M937.477,29.987a33.033,33.033,0,0,1-3.934-.381,16.441,16.441,0,0,1-3.368-.928,9.148,9.148,0,0,1-2.728-1.614,7.77,7.77,0,0,1-1.837-2.5,9.967,9.967,0,0,1-.9-3.526.38.38,0,0,1,.371-.408,1.3,1.3,0,0,0,.371.037q1.54,0,4.676-.074t4.676-.074a.778.778,0,0,1,.613.25,1.983,1.983,0,0,1,.362.612,6.374,6.374,0,0,0,.334.724,1.543,1.543,0,0,0,.669.612,2.585,2.585,0,0,0,1.215.251,2.64,2.64,0,0,0,1.6-.51,1.625,1.625,0,0,0,.7-1.383,1.369,1.369,0,0,0-.594-1.058,4.72,4.72,0,0,0-1.568-.789q-.974-.306-1.856-.52t-1.809-.371q-.928-.157-1.076-.195a15.788,15.788,0,0,1-6.486-3.043,6.425,6.425,0,0,1-1.976-4.973,9.45,9.45,0,0,1,.816-4,8.293,8.293,0,0,1,2.134-2.895A11.739,11.739,0,0,1,931,1.364,16.426,16.426,0,0,1,934.638.306a23.1,23.1,0,0,1,3.8-.306,15.606,15.606,0,0,1,8.313,1.93q1.132,1.133,1.661,1.717a9.923,9.923,0,0,1,1.021,1.364,5.463,5.463,0,0,1,.687,1.531,10.333,10.333,0,0,1,.269,1.846l-.669.668q-3.8.148-8.536.148a2.9,2.9,0,0,1-.956-.13.875.875,0,0,1-.482-.334c-.081-.136-.161-.278-.241-.427s-.155-.291-.222-.427a.767.767,0,0,0-.427-.334,2.375,2.375,0,0,0-.863-.13,3.158,3.158,0,0,0-.473.055q-.325.056-.761.176a2.086,2.086,0,0,0-.752.371.731.731,0,0,0-.316.584.95.95,0,0,0,.417.742,2.742,2.742,0,0,0,.882.483q.463.149,1.15.325t.854.232q4.045,1.021,4.825,1.262a11.824,11.824,0,0,1,5.752,3.358,7.462,7.462,0,0,1,1.559,4.844,10.68,10.68,0,0,1-.454,3.21,8.242,8.242,0,0,1-1.2,2.45,8,8,0,0,1-1.856,1.781,11.493,11.493,0,0,1-2.255,1.243,15.9,15.9,0,0,1-2.589.779q-1.447.315-2.662.455t-2.644.213" transform="translate(-891.738 115.79)" fill="#fff"/><path d="M498.3,185.233c.77.18.872.742.92,1.429a16.893,16.893,0,0,1-5.445,13.8c-.932.91-1.817,1.871-2.776,2.751a2.712,2.712,0,0,0-.868,1.823c-.151,1.353-.288,2.713-.545,4.048a3.423,3.423,0,0,1-.794,1.646c-1.587,1.666-3.246,3.265-4.9,4.866-.213.206-.642.454-.822.369a1.3,1.3,0,0,1-.555-.825c-.234-1.032-.339-2.094-.6-3.117a10.034,10.034,0,0,0-.842-1.731c-.408.727-.678,1.191-.932,1.664-.376.7-.848.714-1.367.18-.564-.579-1.1-1.182-1.775-1.907a5.123,5.123,0,0,1-2.657,3.651,1.381,1.381,0,0,0-.454.729,6.032,6.032,0,0,1-4.777,4.116,1.225,1.225,0,0,0-.727.3,6.305,6.305,0,0,1-2.812,2.026h-.909c-1.9-.821-2.558-1.612-2.114-3.1.341-1.144-.171-2.12-.065-3.179l-.285-.034q-.281,1.652-.564,3.3c-.15-.6-.16-1.193-.262-1.776-.2-1.147-.438-2.295-1.8-2.667v-.364c1.371-.425,1.612-1.6,1.807-2.778a11,11,0,0,1,.3-1.732c.08.7.116,1.412.256,2.1a5.306,5.306,0,0,0,.543,1.523c.46.819.668.731,1.448.245A5.966,5.966,0,0,0,466,210.125a5.035,5.035,0,0,1,5.643-2.459,6.153,6.153,0,0,0,2.065-.364l.166-.293c-.521-.446-1.06-.872-1.557-1.342s-.41-.909.166-1.247c.491-.288.994-.556,1.794-1a13.914,13.914,0,0,0-1.948-.853c-1.023-.26-2.079-.384-3.114-.6-.815-.171-.977-.676-.39-1.273,1.741-1.769,3.484-3.537,5.28-5.249a2.688,2.688,0,0,1,1.389-.535c1.493-.237,3-.37,4.493-.617a2.367,2.367,0,0,0,1.154-.62c1.425-1.355,2.774-2.792,4.216-4.129a15.966,15.966,0,0,1,8.9-4.135,4,4,0,0,0,.587-.174Zm-7.027,2.245a14.972,14.972,0,0,0-5.724,3.628q-5.242,5.223-10.467,10.464c-.163.164-.312.342-.426.467l7.809,7.81a.816.816,0,0,0,.166-.116c3.789-3.787,7.6-7.554,11.352-11.375a13.318,13.318,0,0,0,3.05-5.107,7.548,7.548,0,0,1-5.761-5.772m-15.5,22.97c.012-1.072-.47-1.837-1.358-1.949a6.966,6.966,0,0,0-1.9.29c-.366.061-.779.253-1.092.149a3.718,3.718,0,0,0-4.92,2.609,1.592,1.592,0,0,1-1.13,1.33,2.309,2.309,0,0,0-1.584,2.866,1.825,1.825,0,0,1-.036,1.768,1.508,1.508,0,0,0,.286,1.843,1.579,1.579,0,0,0,1.929.3,11.451,11.451,0,0,0,1.558-1.313c.345-.274.729-.655,1.12-.688a4.5,4.5,0,0,0,4.2-3.514,1.529,1.529,0,0,1,1.005-1.24,2.926,2.926,0,0,0,1.921-2.455m16.809-23.575a5.8,5.8,0,0,0,5.072,5.036c.1-1.6.218-3.214.283-4.826.007-.174-.288-.522-.432-.516-1.641.071-3.279.195-4.924.305m-22.048,13.921c1.764.748,3.239.836,4.389-.856a11.762,11.762,0,0,1,1.587-1.617c.81-.8,1.626-1.586,2.439-2.378a17.624,17.624,0,0,0-3.352.226,1.372,1.372,0,0,0-.731.307c-1.446,1.414-2.868,2.853-4.332,4.319m13.1,13.294a47.97,47.97,0,0,1,3.551-3.543c1.648-1.341,1.179-3.158,1.444-4.843-1.793,1.631-3.484,3.306-5.135,5.02a1.383,1.383,0,0,0-.322.985c.074.738.274,1.463.461,2.381m-8.761-9.5-.931.517,5.471,5.451.517-.925-5.057-5.043m-13.256,6.71-1.032,2.1,1.036,2.1,1.01-2.1-1.014-2.105" transform="translate(-613.505 4.989)" fill="#fff"/><path d="M506.461,262.659c-.22-.957-.243-1.985-1.59-2.382a2.486,2.486,0,0,0,1.522-2.52c.333.948.244,2.09,1.764,2.418-1.377.471-1.524,1.457-1.7,2.484m-.726-2.426.726,1.09.705-1.136-.738-1.06-.693,1.107" transform="translate(-640.603 -38.393)" fill="#fff"/><path d="M515.913,219.277a3.662,3.662,0,0,1-3.744-3.726,3.74,3.74,0,0,1,7.479-.009,3.674,3.674,0,0,1-3.735,3.735M515.835,218a2.415,2.415,0,0,0,2.515-2.317,2.485,2.485,0,0,0-2.371-2.586,2.538,2.538,0,0,0-2.535,2.442,2.451,2.451,0,0,0,2.391,2.46" transform="translate(-644.968 -10.917)" fill="#fff"/></g></svg>