<svg xmlns="http://www.w3.org/2000/svg" width="213.815" height="65.676" viewBox="0 0 213.815 65.676"><g transform="translate(338.604 -51.723)"><path d="M6.859,158.4a17.655,17.655,0,0,1-2.113-.2,8.822,8.822,0,0,1-1.809-.5,4.911,4.911,0,0,1-1.465-.867,4.169,4.169,0,0,1-.987-1.341A5.356,5.356,0,0,1,0,153.593a.2.2,0,0,1,.2-.219.69.69,0,0,0,.2.02q.827,0,2.512-.04t2.512-.04a.417.417,0,0,1,.329.135,1.066,1.066,0,0,1,.195.329,3.363,3.363,0,0,0,.179.389.829.829,0,0,0,.359.329,1.391,1.391,0,0,0,.653.134A1.419,1.419,0,0,0,8,154.356a.873.873,0,0,0,.374-.743.735.735,0,0,0-.319-.568,2.526,2.526,0,0,0-.842-.424q-.523-.165-1-.279t-.972-.2q-.5-.085-.578-.1A8.481,8.481,0,0,1,1.181,150.4,3.451,3.451,0,0,1,.12,147.731a5.074,5.074,0,0,1,.439-2.148A4.45,4.45,0,0,1,1.7,144.028a6.293,6.293,0,0,1,1.675-1.007,8.817,8.817,0,0,1,1.954-.568,12.4,12.4,0,0,1,2.044-.165,8.384,8.384,0,0,1,4.466,1.037q.608.608.892.922a5.335,5.335,0,0,1,.548.733,2.925,2.925,0,0,1,.369.822,5.5,5.5,0,0,1,.145.992l-.359.359q-2.044.08-4.586.08a1.557,1.557,0,0,1-.513-.07.471.471,0,0,1-.259-.18q-.065-.11-.13-.229t-.12-.229a.412.412,0,0,0-.229-.179,1.274,1.274,0,0,0-.464-.07,1.7,1.7,0,0,0-.254.03q-.174.03-.409.095a1.121,1.121,0,0,0-.4.2.393.393,0,0,0-.169.314.511.511,0,0,0,.224.4,1.48,1.48,0,0,0,.473.259q.249.08.618.174t.458.125q2.173.548,2.592.678a6.353,6.353,0,0,1,3.09,1.8,4.008,4.008,0,0,1,.838,2.6,5.74,5.74,0,0,1-.244,1.725A4.421,4.421,0,0,1,13.309,156a4.283,4.283,0,0,1-1,.957,6.145,6.145,0,0,1-1.211.668,8.485,8.485,0,0,1-1.391.419q-.778.169-1.431.244t-1.42.115" transform="translate(-338.604 -60.533)" fill="#fff"/><path d="M101.566,159.6v-.379q0-1.7.04-5.034t.04-5.035v-4.127h11.6v3.579c0,.027,0,.075-.01.145a.366.366,0,0,1-.035.144l-.07.115a.262.262,0,0,1-.1.1.785.785,0,0,1-.159.055.9.9,0,0,1-.219.025h-.279q-2.582,0-4.705-.08-.02.16-.065.493t-.07.588q-.025.254-.025.493h4.745a.686.686,0,0,1,.4.08.312.312,0,0,1,.1.259c0,.033,0,.086-.01.16s-.01.126-.01.16q0,.478.03,1.416t.03,1.415c-.02.133-.073.2-.16.2a.135.135,0,0,1-.1-.04q-3.151.159-4.666.159h-.259v1.436q.887,0,2.567-.08t2.517-.08q.658,0,.758.279v.758q0,.478.02,1.416t.02,1.415q0,.5-.4.5-.519,0-1.6-.01t-1.635-.01q-1.435,0-4.107.075t-3.868.085l-.279-.319a3.4,3.4,0,0,1-.04-.359" transform="translate(-418.733 -62.695)" fill="#fff"/><path d="M186.271,144.811q0-.289.339-.289.967,0,2.826-.02t2.776-.02a.579.579,0,0,1,.478.279l1.715,9.929q.159-.957.568-2.7t.528-2.308l1-4.984q.08-.239,4.088-.239h1.595a.4.4,0,0,1,.239.339l-2.233,8.075q-.07.269-.264,1.191t-.389,1.764q-.194.843-.444,1.76a9.266,9.266,0,0,1-.533,1.515q-.284.6-.543.688-.359,0-1.067-.03t-1.067-.03h-.718q-.678.06-1.48.08t-1.71.03q-.907.01-1.456.03Z" transform="translate(-485.56 -62.248)" fill="#fff"/><path d="M294.686,159.6v-.379q0-1.7.04-5.034t.04-5.035v-4.127h11.6v3.579c0,.027,0,.075-.01.145a.365.365,0,0,1-.035.144l-.07.115a.261.261,0,0,1-.1.1.784.784,0,0,1-.159.055.9.9,0,0,1-.22.025h-.279q-2.582,0-4.705-.08-.02.16-.065.493t-.07.588q-.025.254-.025.493h4.745a.686.686,0,0,1,.4.08.313.313,0,0,1,.1.259c0,.033,0,.086-.01.16s-.01.126-.01.16q0,.478.03,1.416t.03,1.415c-.02.133-.073.2-.16.2a.135.135,0,0,1-.1-.04q-3.151.159-4.666.159h-.259v1.436q.887,0,2.567-.08t2.517-.08q.658,0,.758.279v.758q0,.478.02,1.416t.02,1.415q0,.5-.4.5-.519,0-1.6-.01t-1.635-.01q-1.435,0-4.107.075t-3.868.085l-.279-.319a3.4,3.4,0,0,1-.04-.359" transform="translate(-571.092 -62.695)" fill="#fff"/><path d="M384.815,159.629v-4.506q-.02-2.472.16-9.431v-.817c0-.146.026-.232.08-.259h6.859q.1,0,.4.758t.738,1.949q.434,1.191.613,1.64l1.4,3.649v-3.868q0-.5.025-1.829t.015-2.078q0-.279,1.6-.279.5,0,1.366.02t1.067.02h.758c.106,0,.16.02.16.06q.06,2.772.06,7.935v6.919q-.07.259-.638.259h-.259q-.519,0-1.525.02t-1.525.02h-2.931a3.733,3.733,0,0,1-.578-1.256q-.468-1.306-1.4-3.778t-1.037-2.761q0,.588-.01,1.755t-.01,1.754q0,.439.02,1.316t.02,1.316v1.256q0,.458-.4.459h-4.586Z" transform="translate(-642.196 -62.322)" fill="#fff"/><path d="M558.447,158.4a17.658,17.658,0,0,1-2.113-.2,8.82,8.82,0,0,1-1.809-.5,4.911,4.911,0,0,1-1.466-.867,4.176,4.176,0,0,1-.987-1.341,5.355,5.355,0,0,1-.483-1.894.2.2,0,0,1,.2-.219.691.691,0,0,0,.2.02q.827,0,2.512-.04t2.512-.04a.417.417,0,0,1,.329.135,1.069,1.069,0,0,1,.195.329,3.357,3.357,0,0,0,.179.389.831.831,0,0,0,.359.329,1.39,1.39,0,0,0,.653.134,1.42,1.42,0,0,0,.862-.274.873.873,0,0,0,.374-.743.735.735,0,0,0-.319-.568,2.524,2.524,0,0,0-.842-.424q-.524-.165-1-.279t-.972-.2q-.5-.085-.579-.1a8.479,8.479,0,0,1-3.484-1.635,3.451,3.451,0,0,1-1.062-2.672,5.08,5.08,0,0,1,.439-2.148,4.455,4.455,0,0,1,1.147-1.555,6.291,6.291,0,0,1,1.675-1.007,8.821,8.821,0,0,1,1.954-.568,12.407,12.407,0,0,1,2.044-.165,8.384,8.384,0,0,1,4.466,1.037q.608.608.892.922a5.331,5.331,0,0,1,.548.733,2.937,2.937,0,0,1,.369.822,5.527,5.527,0,0,1,.144.992l-.359.359q-2.044.08-4.586.08a1.557,1.557,0,0,1-.513-.07.473.473,0,0,1-.259-.18q-.065-.11-.129-.229t-.12-.229a.41.41,0,0,0-.229-.179,1.275,1.275,0,0,0-.464-.07,1.7,1.7,0,0,0-.254.03q-.175.03-.409.095a1.121,1.121,0,0,0-.4.2.392.392,0,0,0-.169.314.51.51,0,0,0,.224.4,1.477,1.477,0,0,0,.474.259q.249.08.618.174t.458.125q2.173.548,2.592.678a6.354,6.354,0,0,1,3.091,1.8,4.009,4.009,0,0,1,.837,2.6,5.732,5.732,0,0,1-.244,1.725A4.42,4.42,0,0,1,564.9,156a4.279,4.279,0,0,1-1,.957,6.137,6.137,0,0,1-1.211.668,8.494,8.494,0,0,1-1.391.419q-.777.169-1.431.244t-1.421.115" transform="translate(-773.77 -60.533)" fill="#fff"/><path d="M648.053,147.795q0-.18.02-.533t.02-.483c0-.033-.007-.153-.02-.359s-.02-.385-.02-.538q0-1.057.2-1.057a.449.449,0,0,1,.14.02q2.083,0,6.176-.05t6.126-.05a1.407,1.407,0,0,1,.643.09.391.391,0,0,1,.134.349v.279q0,.518.01,1.53t.01,1.54q0,.519-.279.518-.558,0-1.665-.02t-1.665-.02V159.7a.36.36,0,0,1-.339.319q-.349,0-1.017-.01T655.51,160a.056.056,0,0,0-.04.02q-.439,0-1.231-.01t-1.182-.01h-.6q-.2.02-.578.02l-.4-.478q0-1.515.1-4.506t.1-4.506c0-.046,0-.123,0-.229s0-.192,0-.259-.005-.15-.015-.249a1.029,1.029,0,0,0-.05-.244,1.591,1.591,0,0,0-.085-.189.327.327,0,0,0-.135-.14.433.433,0,0,0-.2-.045h-2.851q-.279-.08-.279-1.376" transform="translate(-849.875 -62.471)" fill="#fff"/><path d="M732.522,159.439q.619-2.283,1.366-4.636t1.859-5.628q1.112-3.275,1.52-4.531a1.724,1.724,0,0,1,.16-.239H739.1q.588,0,1.735-.02t1.734-.02h1.675c.1,0,.182,0,.249.005s.146.012.239.025a.807.807,0,0,1,.224.06.386.386,0,0,1,.144.12.305.305,0,0,1,.06.189l4.6,14.565a.281.281,0,0,1-.145.274,1.328,1.328,0,0,1-.543.075h-.917q-.4,0-1.187.01t-1.186.01q-.12,0-.483.015t-.613.01q-.25-.005-.553-.03a1.478,1.478,0,0,1-.488-.11.409.409,0,0,1-.234-.224V158.7a2.891,2.891,0,0,0-.349-.917q-.249-.419-.528-.419H739.1l-.518,2.113q-.11.239-1.117.239h-.8q-.428,0-1.276.03t-1.276.03h-.279q-.159,0-.5.01t-.533.01a3.5,3.5,0,0,1-.279-.359m6.919-6.051.279.469h.658a10.349,10.349,0,0,0,1.461-.095q.663-.094.663-.3l-1.286-5.742q-.18,0-.484.678a7.939,7.939,0,0,0-.493,1.535Z" transform="translate(-916.515 -62.172)" fill="#fff"/><path d="M860.222,159.777a1.481,1.481,0,0,1-.922.259,15.523,15.523,0,0,1-1.73-.02q-1.027-.06-1.1-.06-.678,0-.977-.02h-1q-.22-.07-.369-.653a15.305,15.305,0,0,1-.294-1.675q-.145-1.092-.155-1.161a2.225,2.225,0,0,0-.319-1.3,1.324,1.324,0,0,0-1.017-.314h-.439V159.7q-.02.119-.209.2a1.78,1.78,0,0,1-.543.1c-.236.016-.446.026-.628.03s-.424,0-.723,0-.482-.01-.548-.01H847.82q-1.216,0-1.834.02a2.731,2.731,0,0,1-.279-.14V145.023q0-.279.8-.279H855.2a5.37,5.37,0,0,1,3.444,1.077,3.583,3.583,0,0,1,1.182,2.871,3.693,3.693,0,0,1-2.433,3.529,2.94,2.94,0,0,1,.807.389,3.042,3.042,0,0,1,.6.534,2.9,2.9,0,0,1,.419.683,5.582,5.582,0,0,1,.279.748,7.043,7.043,0,0,1,.174.827q.075.479.1.828t.075.832q.045.483.075.763v.877a1.729,1.729,0,0,0,.185.449,2.486,2.486,0,0,1,.194.429c0,.133-.026.2-.08.2m-8.374-10.806q0,.6.01.887a4.591,4.591,0,0,0,.11.758,1.333,1.333,0,0,0,.3.668,3.39,3.39,0,0,0,.793-.09,2.734,2.734,0,0,0,.723-.289,1.407,1.407,0,0,0,.553-.593,2.024,2.024,0,0,0,.2-.942,1.266,1.266,0,0,0-.11-.543.9.9,0,0,0-.319-.374,2.45,2.45,0,0,0-.414-.224,1.914,1.914,0,0,0-.5-.12c-.2-.023-.35-.038-.464-.045s-.249-.01-.409-.01h-.239a.369.369,0,0,0-.195.279,3.314,3.314,0,0,0-.045.638" transform="translate(-1005.81 -62.471)" fill="#fff"/><path d="M952.621,158.4a17.669,17.669,0,0,1-2.114-.2,8.833,8.833,0,0,1-1.809-.5,4.912,4.912,0,0,1-1.465-.867,4.178,4.178,0,0,1-.987-1.341,5.353,5.353,0,0,1-.484-1.894.2.2,0,0,1,.2-.219.688.688,0,0,0,.2.02q.827,0,2.512-.04t2.512-.04a.417.417,0,0,1,.329.135,1.063,1.063,0,0,1,.194.329,3.389,3.389,0,0,0,.179.389.83.83,0,0,0,.359.329,1.389,1.389,0,0,0,.653.134,1.419,1.419,0,0,0,.862-.274.872.872,0,0,0,.374-.743.735.735,0,0,0-.319-.568,2.528,2.528,0,0,0-.842-.424q-.524-.165-1-.279t-.972-.2q-.5-.085-.578-.1a8.476,8.476,0,0,1-3.484-1.635,3.45,3.45,0,0,1-1.062-2.672,5.075,5.075,0,0,1,.439-2.148,4.453,4.453,0,0,1,1.146-1.555,6.3,6.3,0,0,1,1.675-1.007,8.817,8.817,0,0,1,1.954-.568,12.406,12.406,0,0,1,2.044-.165,8.382,8.382,0,0,1,4.466,1.037q.608.608.892.922a5.327,5.327,0,0,1,.548.733,2.93,2.93,0,0,1,.369.822,5.519,5.519,0,0,1,.145.992l-.359.359q-2.045.08-4.586.08a1.558,1.558,0,0,1-.513-.07.472.472,0,0,1-.259-.18q-.065-.11-.13-.229c-.043-.08-.083-.156-.12-.229a.409.409,0,0,0-.229-.179,1.273,1.273,0,0,0-.464-.07,1.7,1.7,0,0,0-.254.03q-.175.03-.408.095a1.116,1.116,0,0,0-.4.2.392.392,0,0,0-.17.314.51.51,0,0,0,.224.4,1.483,1.483,0,0,0,.473.259q.25.08.618.174c.246.063.4.1.459.125q2.173.548,2.592.678a6.353,6.353,0,0,1,3.091,1.8,4.01,4.01,0,0,1,.837,2.6,5.732,5.732,0,0,1-.244,1.725,4.416,4.416,0,0,1-.643,1.316,4.278,4.278,0,0,1-1,.957,6.146,6.146,0,0,1-1.211.668,8.5,8.5,0,0,1-1.391.419q-.778.169-1.431.244t-1.421.115" transform="translate(-1084.747 -60.533)" fill="#fff"/><path d="M107.161,275.32l-.734,2.036H101.2l0-.126h.159a.807.807,0,0,0,.807-.793v-6.984a.808.808,0,0,0-.807-.793H101.2l0-.126h2.757l0,.126H103.8a.808.808,0,0,0-.807.793v7.517H104.8a2.177,2.177,0,0,0,2.237-1.65Z" transform="translate(-418.446 -160.133)" fill="#fff"/><path d="M107.161,275.32l-.734,2.036H101.2l0-.126h.159a.807.807,0,0,0,.807-.793v-6.984a.808.808,0,0,0-.807-.793H101.2l0-.126h2.757l0,.126H103.8a.808.808,0,0,0-.807.793v7.517H104.8a2.177,2.177,0,0,0,2.237-1.65Z" transform="translate(-418.446 -160.133)" fill="#fff"/><path d="M159.807,268.53v.126H159.6a.643.643,0,0,0-.665.6v4.983a3.162,3.162,0,0,1-3.4,3.294,3.2,3.2,0,0,1-3.5-3.272V269.28a.641.641,0,0,0-.666-.624h-.205v-.126h2.56v.126h-.205a.64.64,0,0,0-.664.605v4.81c0,1.836,1.07,3.06,2.676,3.06a2.7,2.7,0,0,0,2.809-2.9v-4.971a.642.642,0,0,0-.665-.607h-.205v-.126Z" transform="translate(-457.87 -160.13)" fill="#fff"/><path d="M159.807,268.53v.126H159.6a.643.643,0,0,0-.665.6v4.983a3.162,3.162,0,0,1-3.4,3.294,3.2,3.2,0,0,1-3.5-3.272V269.28a.641.641,0,0,0-.666-.624h-.205v-.126h2.56v.126h-.205a.64.64,0,0,0-.664.605v4.81c0,1.836,1.07,3.06,2.676,3.06a2.7,2.7,0,0,0,2.809-2.9v-4.971a.642.642,0,0,0-.665-.607h-.205v-.126Z" transform="translate(-457.87 -160.13)" fill="#fff"/><path d="M220.969,277.226v.126H217.9v-.126h.159a.527.527,0,0,0,.446-.768l-1.942-3.065-1.938,3.056a.529.529,0,0,0,.446.776h.159v.124h-2.858v-.124h.175a1.654,1.654,0,0,0,1.283-.743l2.413-3.6-2.212-3.49a1.63,1.63,0,0,0-1.27-.742h-.176v-.125h3.058v.125h-.159a.533.533,0,0,0-.449.768l1.736,2.728,1.718-2.714a.526.526,0,0,0-.429-.782h-.159v-.126h2.841v.126h-.176a1.628,1.628,0,0,0-1.27.741l-2.208,3.251,2.448,3.846a1.622,1.622,0,0,0,1.268.732Z" transform="translate(-506.148 -160.13)" fill="#fff"/><path d="M220.969,277.226v.126H217.9v-.126h.159a.527.527,0,0,0,.446-.768l-1.942-3.065-1.938,3.056a.529.529,0,0,0,.446.776h.159v.124h-2.858v-.124h.175a1.654,1.654,0,0,0,1.283-.743l2.413-3.6-2.212-3.49a1.63,1.63,0,0,0-1.27-.742h-.176v-.125h3.058v.125h-.159a.533.533,0,0,0-.449.768l1.736,2.728,1.718-2.714a.526.526,0,0,0-.429-.782h-.159v-.126h2.841v.126h-.176a1.628,1.628,0,0,0-1.27.741l-2.208,3.251,2.448,3.846a1.622,1.622,0,0,0,1.268.732Z" transform="translate(-506.148 -160.13)" fill="#fff"/><path d="M282.016,268.53v.126h-.205a.643.643,0,0,0-.665.6v4.983a3.162,3.162,0,0,1-3.4,3.294,3.2,3.2,0,0,1-3.495-3.272V269.28a.642.642,0,0,0-.666-.624h-.205v-.126h2.56v.126h-.205a.64.64,0,0,0-.664.605v4.81c0,1.836,1.07,3.06,2.676,3.06a2.7,2.7,0,0,0,2.809-2.9v-4.971a.642.642,0,0,0-.665-.607h-.205v-.126Z" transform="translate(-554.284 -160.13)" fill="#fff"/><path d="M282.016,268.53v.126h-.205a.643.643,0,0,0-.665.6v4.983a3.162,3.162,0,0,1-3.4,3.294,3.2,3.2,0,0,1-3.495-3.272V269.28a.642.642,0,0,0-.666-.624h-.205v-.126h2.56v.126h-.205a.64.64,0,0,0-.664.605v4.81c0,1.836,1.07,3.06,2.676,3.06a2.7,2.7,0,0,0,2.809-2.9v-4.971a.642.642,0,0,0-.665-.607h-.205v-.126Z" transform="translate(-554.284 -160.13)" fill="#fff"/><path d="M341.379,268.529a2.235,2.235,0,0,1,2.463,2.369,2.332,2.332,0,0,1-2.141,2.4,3.055,3.055,0,0,1,.9.887s1.086,1.551,1.574,2.084a2.274,2.274,0,0,0,1.714.953v.126H345.2a2.711,2.711,0,0,1-2.2-1.1c-.143-.171-1.563-2.237-1.66-2.359-.329-.414-.7-.851-1.158-.851v-.116s.287.006.666,0a1.887,1.887,0,0,0,1.967-1.308,2.613,2.613,0,0,0,.08-.755c-.031-1.14-.625-1.87-1.563-1.921-.643-.035-1.405,0-1.569-.01v7.511a.807.807,0,0,0,.807.792h.159l0,.126H337.98l0-.126h.16a.807.807,0,0,0,.807-.786v-6.992a.808.808,0,0,0-.807-.793h-.159l0-.125Z" transform="translate(-605.248 -160.129)" fill="#fff"/><path d="M341.379,268.529a2.235,2.235,0,0,1,2.463,2.369,2.332,2.332,0,0,1-2.141,2.4,3.055,3.055,0,0,1,.9.887s1.086,1.551,1.574,2.084a2.274,2.274,0,0,0,1.714.953v.126H345.2a2.711,2.711,0,0,1-2.2-1.1c-.143-.171-1.563-2.237-1.66-2.359-.329-.414-.7-.851-1.158-.851v-.116s.287.006.666,0a1.887,1.887,0,0,0,1.967-1.308,2.613,2.613,0,0,0,.08-.755c-.031-1.14-.625-1.87-1.563-1.921-.643-.035-1.405,0-1.569-.01v7.511a.807.807,0,0,0,.807.792h.159l0,.126H337.98l0-.126h.16a.807.807,0,0,0,.807-.786v-6.992a.808.808,0,0,0-.807-.793h-.159l0-.125Z" transform="translate(-605.248 -160.129)" fill="#fff"/><path d="M396.541,268.529v.126h-.176a1.625,1.625,0,0,0-1.264.732l-2.492,4.028v3.017a.807.807,0,0,0,.807.793h.159l0,.126H390.82l0-.126h.16a.807.807,0,0,0,.807-.785V273.4l-2.4-4.011a1.59,1.59,0,0,0-1.267-.736h-.172v-.126h3.1v.126h-.159a.532.532,0,0,0-.441.782l1.888,3.527,2.009-3.528.006-.012a.532.532,0,0,0-.448-.769h-.159v-.126Z" transform="translate(-644.671 -160.129)" fill="#fff"/><path d="M396.541,268.529v.126h-.176a1.625,1.625,0,0,0-1.264.732l-2.492,4.028v3.017a.807.807,0,0,0,.807.793h.159l0,.126H390.82l0-.126h.16a.807.807,0,0,0,.807-.785V273.4l-2.4-4.011a1.59,1.59,0,0,0-1.267-.736h-.172v-.126h3.1v.126h-.159a.532.532,0,0,0-.441.782l1.888,3.527,2.009-3.528.006-.012a.532.532,0,0,0-.448-.769h-.159v-.126Z" transform="translate(-644.671 -160.129)" fill="#fff"/><path d="M490.535,273.016l-.154,1.978a3.9,3.9,0,0,1-3.541,1.877,4.588,4.588,0,0,1,.074-9.175,5.387,5.387,0,0,1,2.981.851l.254,1.78h-.1a3.024,3.024,0,0,0-3.132-2.254c-2.216,0-3.627,1.676-3.627,4.184,0,2.533,1.437,4.184,3.555,4.235,1.79-.005,3.3-.9,3.59-3.477Z" transform="translate(-719.137 -159.472)" fill="#fff"/><path d="M490.535,273.016l-.154,1.978a3.9,3.9,0,0,1-3.541,1.877,4.588,4.588,0,0,1,.074-9.175,5.387,5.387,0,0,1,2.981.851l.254,1.78h-.1a3.024,3.024,0,0,0-3.132-2.254c-2.216,0-3.627,1.676-3.627,4.184,0,2.533,1.437,4.184,3.555,4.235,1.79-.005,3.3-.9,3.59-3.477Z" transform="translate(-719.137 -159.472)" fill="#fff"/><path d="M551.583,275.32l-.734,2.036h-5.225l0-.126h.159a.808.808,0,0,0,.807-.793v-6.984a.808.808,0,0,0-.807-.793h-.159l0-.126h2.757l0,.126h-.16a.807.807,0,0,0-.807.793v7.517h1.807a2.177,2.177,0,0,0,2.237-1.65Z" transform="translate(-769.065 -160.133)" fill="#fff"/><path d="M551.583,275.32l-.734,2.036h-5.225l0-.126h.159a.808.808,0,0,0,.807-.793v-6.984a.808.808,0,0,0-.807-.793h-.159l0-.126h2.757l0,.126h-.16a.807.807,0,0,0-.807.793v7.517h1.807a2.177,2.177,0,0,0,2.237-1.65Z" transform="translate(-769.065 -160.133)" fill="#fff"/><path d="M601.42,276.5H596.2l0-.126h.159a.807.807,0,0,0,.807-.793V268.52a.808.808,0,0,0-.8-.722H596.2l0-.125h3.683a5.445,5.445,0,0,0,1.5-.229v1.591l-.127,0v-.225a.752.752,0,0,0-.706-.75h-2.569v3.9h2.13a.621.621,0,0,0,.609-.62v-.186l.123,0v1.994h-.123v-.186a.621.621,0,0,0-.6-.621h-2.143v3.776h1.807a2.178,2.178,0,0,0,2.237-1.65h.126Z" transform="translate(-808.963 -159.273)" fill="#fff"/><path d="M601.42,276.5H596.2l0-.126h.159a.807.807,0,0,0,.807-.793V268.52a.808.808,0,0,0-.8-.722H596.2l0-.125h3.683a5.445,5.445,0,0,0,1.5-.229v1.591l-.127,0v-.225a.752.752,0,0,0-.706-.75h-2.569v3.9h2.13a.621.621,0,0,0,.609-.62v-.186l.123,0v1.994h-.123v-.186a.621.621,0,0,0-.6-.621h-2.143v3.776h1.807a2.178,2.178,0,0,0,2.237-1.65h.126Z" transform="translate(-808.963 -159.273)" fill="#fff"/><path d="M652.394,275.773a1.247,1.247,0,0,0,1.107.794h.105v.126h-2.838v-.125h.111a.536.536,0,0,0,.479-.791l-.806-2.146h-3.394l-.844,2.154a.535.535,0,0,0,.482.784h.11v.125H644.37v-.126h.113a1.246,1.246,0,0,0,1.1-.793l2.858-6.781a6.645,6.645,0,0,0,.467-1.3h.114Zm-1.984-2.521-1.519-4.045-1.585,4.045Z" transform="translate(-846.969 -159.471)" fill="#fff"/><path d="M652.394,275.773a1.247,1.247,0,0,0,1.107.794h.105v.126h-2.838v-.125h.111a.536.536,0,0,0,.479-.791l-.806-2.146h-3.394l-.844,2.154a.535.535,0,0,0,.482.784h.11v.125H644.37v-.126h.113a1.246,1.246,0,0,0,1.1-.793l2.858-6.781a6.645,6.645,0,0,0,.467-1.3h.114Zm-1.984-2.521-1.519-4.045-1.585,4.045Z" transform="translate(-846.969 -159.471)" fill="#fff"/><path d="M717.541,267.825l0,.126h-.233a.778.778,0,0,0-.778.753v6.511a12.85,12.85,0,0,0,.115,1.608h-.114l-6.873-7.331v6.275a.778.778,0,0,0,.778.754h.233l0,.126h-2.6l0-.126h.233a.778.778,0,0,0,.778-.763V269.21a10.976,10.976,0,0,0-.116-1.574h.125l6.863,7.328v-6.25a.778.778,0,0,0-.778-.764h-.233l0-.126Z" transform="translate(-897.226 -159.424)" fill="#fff"/><path d="M717.541,267.825l0,.126h-.233a.778.778,0,0,0-.778.753v6.511a12.85,12.85,0,0,0,.115,1.608h-.114l-6.873-7.331v6.275a.778.778,0,0,0,.778.754h.233l0,.126h-2.6l0-.126h.233a.778.778,0,0,0,.778-.763V269.21a10.976,10.976,0,0,0-.116-1.574h.125l6.863,7.328v-6.25a.778.778,0,0,0-.778-.764h-.233l0-.126Z" transform="translate(-897.226 -159.424)" fill="#fff"/><path d="M779.248,277.348h-2.757l0-.126h.16a.807.807,0,0,0,.807-.793v-6.991a.807.807,0,0,0-.807-.787h-.16l0-.126h2.757l0,.126h-.159a.808.808,0,0,0-.807.785v6.994a.808.808,0,0,0,.807.793h.16Z" transform="translate(-951.203 -160.126)" fill="#fff"/><path d="M779.248,277.348h-2.757l0-.126h.16a.807.807,0,0,0,.807-.793v-6.991a.807.807,0,0,0-.807-.787h-.16l0-.126h2.757l0,.126h-.159a.808.808,0,0,0-.807.785v6.994a.808.808,0,0,0,.807.793h.16Z" transform="translate(-951.203 -160.126)" fill="#fff"/><path d="M823.153,267.825l0,.126h-.233a.778.778,0,0,0-.778.753v6.511a12.844,12.844,0,0,0,.115,1.608h-.114l-6.873-7.331v6.275a.778.778,0,0,0,.778.754h.233l0,.126h-2.6l0-.126h.233a.778.778,0,0,0,.778-.763V269.21a10.976,10.976,0,0,0-.116-1.574h.124l6.863,7.328v-6.25a.778.778,0,0,0-.778-.764h-.232l0-.126Z" transform="translate(-980.547 -159.424)" fill="#fff"/><path d="M823.153,267.825l0,.126h-.233a.778.778,0,0,0-.778.753v6.511a12.844,12.844,0,0,0,.115,1.608h-.114l-6.873-7.331v6.275a.778.778,0,0,0,.778.754h.233l0,.126h-2.6l0-.126h.233a.778.778,0,0,0,.778-.763V269.21a10.976,10.976,0,0,0-.116-1.574h.124l6.863,7.328v-6.25a.778.778,0,0,0-.778-.764h-.232l0-.126Z" transform="translate(-980.547 -159.424)" fill="#fff"/><path d="M890.312,272.594c-.407,0-.637.206-.63.57v2.084a4.424,4.424,0,0,1-3.645,1.623,4.588,4.588,0,0,1,0-9.174,5.349,5.349,0,0,1,3.055.851l.254,1.78h-.1a3.02,3.02,0,0,0-3.2-2.253c-2.136,0-3.584,1.684-3.584,4.21s1.448,4.2,3.584,4.21a4.216,4.216,0,0,0,2.844-1.093v-2.233c0-.368-.242-.575-.648-.575h-.2v-.126H890.5v.126Z" transform="translate(-1034.054 -159.472)" fill="#fff"/><path d="M890.312,272.594c-.407,0-.637.206-.63.57v2.084a4.424,4.424,0,0,1-3.645,1.623,4.588,4.588,0,0,1,0-9.174,5.349,5.349,0,0,1,3.055.851l.254,1.78h-.1a3.02,3.02,0,0,0-3.2-2.253c-2.136,0-3.584,1.684-3.584,4.21s1.448,4.2,3.584,4.21a4.216,4.216,0,0,0,2.844-1.093v-2.233c0-.368-.242-.575-.648-.575h-.2v-.126H890.5v.126Z" transform="translate(-1034.054 -159.472)" fill="#fff"/><path d="M485.322,0c.413.1.469.4.494.767a9.076,9.076,0,0,1-2.925,7.414c-.5.489-.976,1-1.491,1.477a1.457,1.457,0,0,0-.466.979c-.081.727-.155,1.458-.293,2.175a1.835,1.835,0,0,1-.426.884c-.853.9-1.744,1.754-2.633,2.614-.114.111-.345.244-.442.2a.7.7,0,0,1-.3-.443c-.125-.554-.182-1.125-.321-1.675a5.4,5.4,0,0,0-.452-.93c-.219.391-.365.64-.5.894-.2.377-.456.384-.735.1-.3-.311-.593-.635-.954-1.024a2.752,2.752,0,0,1-1.427,1.961.741.741,0,0,0-.244.392,3.241,3.241,0,0,1-2.567,2.211.657.657,0,0,0-.391.162,3.39,3.39,0,0,1-1.51,1.088h-.489c-1.019-.441-1.374-.866-1.136-1.667.183-.615-.092-1.139-.035-1.708l-.153-.018-.3,1.775c-.08-.32-.086-.641-.141-.954-.108-.616-.235-1.233-.967-1.433v-.2c.736-.228.866-.858.971-1.492a5.914,5.914,0,0,1,.161-.931c.043.377.062.759.138,1.129a2.856,2.856,0,0,0,.292.818c.247.44.359.393.778.132a3.206,3.206,0,0,0,1.113-1.325A2.7,2.7,0,0,1,471,12.052a3.314,3.314,0,0,0,1.11-.2l.089-.157c-.28-.239-.57-.468-.836-.721s-.22-.488.089-.67c.264-.155.534-.3.964-.537a7.447,7.447,0,0,0-1.046-.458c-.549-.14-1.117-.207-1.673-.323-.438-.092-.525-.363-.21-.683.935-.95,1.872-1.9,2.836-2.82a1.446,1.446,0,0,1,.746-.288c.8-.127,1.613-.2,2.414-.331a1.271,1.271,0,0,0,.62-.333c.766-.728,1.49-1.5,2.265-2.218A8.577,8.577,0,0,1,483.15.094,2.114,2.114,0,0,0,483.466,0Zm-3.775,1.206a8.044,8.044,0,0,0-3.075,1.949q-2.816,2.806-5.623,5.621c-.088.088-.168.184-.229.251l4.2,4.2a.46.46,0,0,0,.089-.062c2.035-2.034,4.082-4.058,6.1-6.111a7.154,7.154,0,0,0,1.638-2.743,4.055,4.055,0,0,1-3.095-3.1m-8.325,12.34c.007-.576-.252-.987-.729-1.047a3.738,3.738,0,0,0-1.022.156c-.2.033-.419.136-.586.08a2,2,0,0,0-2.643,1.4.856.856,0,0,1-.607.714,1.24,1.24,0,0,0-.851,1.54.98.98,0,0,1-.019.95.81.81,0,0,0,.154.99.849.849,0,0,0,1.037.164,6.136,6.136,0,0,0,.837-.706c.185-.147.391-.352.6-.369a2.415,2.415,0,0,0,2.256-1.888.822.822,0,0,1,.54-.666,1.572,1.572,0,0,0,1.032-1.319M482.252.881a3.117,3.117,0,0,0,2.725,2.705c.054-.862.117-1.727.152-2.593,0-.093-.155-.28-.232-.277-.881.038-1.761.1-2.645.164M470.407,8.36c.948.4,1.74.449,2.358-.46a6.291,6.291,0,0,1,.853-.869c.435-.428.873-.852,1.31-1.278a9.483,9.483,0,0,0-1.8.121.737.737,0,0,0-.393.165c-.777.76-1.541,1.533-2.327,2.32m7.038,7.142a25.753,25.753,0,0,1,1.908-1.9c.885-.72.633-1.7.776-2.6-.964.876-1.872,1.776-2.759,2.7a.744.744,0,0,0-.173.529c.04.4.147.786.248,1.279M472.738,10.4l-.5.278,2.939,2.929.278-.5L472.738,10.4M465.617,14l-.555,1.13.557,1.127.543-1.126L465.617,14" transform="translate(-705.076 51.723)" fill="#fff"/><path d="M511.7,76.808c-.118-.514-.131-1.066-.854-1.28a1.336,1.336,0,0,0,.818-1.354c.179.51.131,1.123.948,1.3-.74.253-.819.783-.911,1.335m-.39-1.3.39.586.379-.61-.4-.57-.372.594" transform="translate(-741.629 -6.796)" fill="#fff"/><path d="M519.832,32.677a1.967,1.967,0,0,1-2.011-2,2.009,2.009,0,0,1,4.018,0,1.974,1.974,0,0,1-2.006,2.007m-.042-.685a1.3,1.3,0,0,0,1.351-1.245,1.335,1.335,0,0,0-1.274-1.389,1.364,1.364,0,0,0-1.362,1.312,1.317,1.317,0,0,0,1.285,1.322" transform="translate(-747.13 29.102)" fill="#fff"/></g></svg>