<svg xmlns="http://www.w3.org/2000/svg" width="58.563" height="52.846" viewBox="0 0 58.563 52.846"><path d="M358.353,0c1.135.265,1.287,1.094,1.357,2.108.553,8.07-2.31,14.772-8.033,20.36-1.375,1.343-2.68,2.76-4.1,4.058a4,4,0,0,0-1.28,2.689c-.224,2-.425,4-.8,5.973a5.048,5.048,0,0,1-1.171,2.428c-2.341,2.458-4.789,4.817-7.23,7.179-.315.3-.947.67-1.213.545a1.913,1.913,0,0,1-.819-1.217c-.344-1.522-.5-3.088-.883-4.6a14.816,14.816,0,0,0-1.242-2.554c-.6,1.074-1,1.758-1.375,2.456-.555,1.035-1.251,1.053-2.018.266-.832-.855-1.628-1.744-2.619-2.813a7.558,7.558,0,0,1-3.921,5.387,2.037,2.037,0,0,0-.67,1.076,8.9,8.9,0,0,1-7.049,6.072,1.8,1.8,0,0,0-1.072.445,9.306,9.306,0,0,1-4.148,2.988h-1.341c-2.8-1.211-3.774-2.378-3.118-4.578.5-1.688-.252-3.128-.1-4.69l-.42-.051q-.416,2.438-.832,4.875c-.221-.878-.237-1.761-.386-2.62-.3-1.692-.646-3.385-2.657-3.935v-.536c2.023-.627,2.379-2.356,2.666-4.1a16.223,16.223,0,0,1,.443-2.556c.119,1.035.171,2.083.378,3.1A7.821,7.821,0,0,0,305.5,40c.679,1.209.986,1.079,2.136.361a8.8,8.8,0,0,0,3.056-3.638c1.665-3.089,4.855-4.258,8.324-3.627.952.173,2.028-.339,3.048-.537l.244-.432c-.768-.658-1.564-1.286-2.3-1.981s-.605-1.341.245-1.84c.725-.425,1.467-.82,2.647-1.476a20.455,20.455,0,0,0-2.874-1.258c-1.509-.384-3.068-.567-4.594-.887-1.2-.252-1.442-1-.576-1.877,2.568-2.61,5.14-5.219,7.79-7.745a3.971,3.971,0,0,1,2.049-.79c2.2-.349,4.429-.545,6.628-.91a3.491,3.491,0,0,0,1.7-.914c2.1-2,4.092-4.12,6.22-6.092A23.555,23.555,0,0,1,352.39.257,5.805,5.805,0,0,0,353.256,0h5.1M347.985,3.313a22.09,22.09,0,0,0-8.445,5.353Q331.805,16.371,324.1,24.1c-.241.241-.461.5-.628.689l11.522,11.523a1.218,1.218,0,0,0,.245-.171c5.59-5.587,11.21-11.146,16.749-16.783a19.649,19.649,0,0,0,4.5-7.534,11.136,11.136,0,0,1-8.5-8.516M325.123,37.2c.018-1.582-.694-2.709-2-2.875a10.27,10.27,0,0,0-2.806.427c-.539.09-1.149.374-1.61.219a5.485,5.485,0,0,0-7.259,3.849,2.351,2.351,0,0,1-1.667,1.962c-1.888.685-3.03,2.707-2.336,4.228a2.692,2.692,0,0,1-.053,2.608,2.225,2.225,0,0,0,.422,2.719,2.33,2.33,0,0,0,2.847.45,16.886,16.886,0,0,0,2.3-1.938c.509-.4,1.075-.966,1.652-1.014a6.635,6.635,0,0,0,6.2-5.184,2.258,2.258,0,0,1,1.484-1.83,4.318,4.318,0,0,0,2.834-3.622m24.8-34.782c.4,3.8,3.856,7.248,7.483,7.43.15-2.368.322-4.742.418-7.12.01-.257-.425-.77-.637-.76-2.421.1-4.838.287-7.264.45m-32.53,20.539c2.6,1.1,4.778,1.233,6.475-1.263a17.313,17.313,0,0,1,2.342-2.386c1.195-1.174,2.4-2.34,3.6-3.509a26.036,26.036,0,0,0-4.945.333,2.026,2.026,0,0,0-1.079.454c-2.134,2.086-4.232,4.209-6.392,6.372m19.329,19.614a70.624,70.624,0,0,1,5.24-5.227c2.432-1.978,1.739-4.659,2.131-7.146-2.646,2.406-5.141,4.878-7.576,7.406a2.046,2.046,0,0,0-.475,1.453c.109,1.088.4,2.159.681,3.513M323.8,28.551l-1.373.763,8.072,8.042.763-1.365-7.462-7.44m-19.558,9.9-1.523,3.1,1.529,3.095,1.49-3.092-1.5-3.106" transform="translate(-301.214)" fill="#45155e"/></svg>