<svg xmlns="http://www.w3.org/2000/svg" xmlns:xlink="http://www.w3.org/1999/xlink" width="32" height="32" viewBox="0 0 32 32"><defs><clipPath id="a"><rect width="32" height="32" transform="translate(-1414 3230)" fill="#fff"/></clipPath></defs><g transform="translate(1414 -3230)" clip-path="url(#a)"><path d="M331.887,0c.61.142.691.587.728,1.131A13.38,13.38,0,0,1,328.3,12.061c-.738.721-1.439,1.482-2.2,2.178a2.147,2.147,0,0,0-.687,1.443c-.12,1.072-.228,2.149-.432,3.206a2.71,2.71,0,0,1-.629,1.3c-1.257,1.32-2.571,2.586-3.881,3.854-.169.164-.508.36-.651.292a1.027,1.027,0,0,1-.44-.654c-.185-.817-.269-1.658-.474-2.469a7.957,7.957,0,0,0-.667-1.371c-.323.576-.537.944-.738,1.318-.3.556-.672.565-1.083.143-.447-.459-.874-.936-1.406-1.51a4.057,4.057,0,0,1-2.1,2.892,1.093,1.093,0,0,0-.36.578,4.778,4.778,0,0,1-3.784,3.26.967.967,0,0,0-.576.239,5,5,0,0,1-2.227,1.6h-.72c-1.5-.65-2.026-1.276-1.674-2.458.27-.906-.135-1.679-.052-2.518l-.225-.027-.447,2.617c-.118-.471-.127-.945-.207-1.406-.159-.908-.347-1.817-1.427-2.112v-.288c1.086-.337,1.277-1.265,1.431-2.2a8.711,8.711,0,0,1,.238-1.372c.064.555.092,1.118.2,1.664a4.2,4.2,0,0,0,.43,1.206c.364.649.529.579,1.147.194a4.726,4.726,0,0,0,1.641-1.953,3.987,3.987,0,0,1,4.469-1.947,4.872,4.872,0,0,0,1.636-.288l.131-.232c-.412-.353-.839-.69-1.233-1.063s-.325-.72.132-.988c.389-.228.788-.44,1.421-.792a10.979,10.979,0,0,0-1.543-.675c-.81-.206-1.647-.3-2.466-.476-.645-.135-.774-.535-.309-1.008,1.379-1.4,2.759-2.8,4.182-4.158a2.131,2.131,0,0,1,1.1-.424c1.182-.187,2.378-.293,3.558-.489a1.874,1.874,0,0,0,.914-.491c1.129-1.074,2.2-2.212,3.339-3.27A12.645,12.645,0,0,1,328.686.138,3.116,3.116,0,0,0,329.151,0h2.736m-5.565,1.778a11.858,11.858,0,0,0-4.534,2.873q-4.152,4.137-8.29,8.287c-.129.13-.247.271-.337.37l6.185,6.186a.654.654,0,0,0,.131-.092c3-3,6.017-5.983,8.991-9.009a10.548,10.548,0,0,0,2.415-4.044,5.978,5.978,0,0,1-4.562-4.571M314.048,19.97c.009-.849-.372-1.454-1.075-1.544a5.513,5.513,0,0,0-1.507.229c-.29.048-.617.2-.864.118a2.944,2.944,0,0,0-3.9,2.066,1.262,1.262,0,0,1-.895,1.053,1.828,1.828,0,0,0-1.254,2.27,1.445,1.445,0,0,1-.028,1.4,1.2,1.2,0,0,0,.227,1.46,1.251,1.251,0,0,0,1.528.241,9.066,9.066,0,0,0,1.234-1.04c.273-.217.577-.519.887-.545a3.562,3.562,0,0,0,3.327-2.783,1.212,1.212,0,0,1,.8-.982,2.318,2.318,0,0,0,1.521-1.944M327.361,1.3a4.6,4.6,0,0,0,4.017,3.989c.08-1.271.173-2.546.224-3.822.006-.138-.228-.413-.342-.408-1.3.056-2.6.154-3.9.242M309.9,12.325c1.4.592,2.565.662,3.476-.678a9.294,9.294,0,0,1,1.257-1.281c.641-.63,1.288-1.256,1.932-1.883a13.977,13.977,0,0,0-2.654.179,1.088,1.088,0,0,0-.579.243c-1.145,1.12-2.272,2.259-3.431,3.421m10.376,10.529a37.918,37.918,0,0,1,2.813-2.806c1.305-1.062.934-2.5,1.144-3.836-1.421,1.292-2.76,2.618-4.067,3.976a1.1,1.1,0,0,0-.255.78c.058.584.217,1.159.365,1.886m-6.939-7.527-.737.41,4.333,4.317.41-.733-4.006-3.994m-10.5,5.314-.818,1.666.821,1.661.8-1.66-.8-1.667" transform="translate(-1715.214 3232)" fill="#45155e"/></g></svg>